<svg xmlns="http://www.w3.org/2000/svg" xmlns:xlink="http://www.w3.org/1999/xlink" width="500" zoomAndPan="magnify" viewBox="0 0 375 374.999991" height="500" preserveAspectRatio="xMidYMid meet" version="1.0"><defs><clipPath id="8fc586fed8"><path d="M 85.761719 87.34375 L 289.011719 87.34375 L 289.011719 287.59375 L 85.761719 287.59375 Z M 85.761719 87.34375 " clip-rule="nonzero"/></clipPath></defs><path fill="#ffffff" d="M 114.242188 280.726562 C 113.707031 280.726562 113.171875 280.578125 112.691406 280.285156 C 111.824219 279.75 111.296875 278.796875 111.296875 277.785156 L 111.296875 266.011719 L 99.519531 266.011719 C 97.894531 266.011719 96.578125 264.695312 96.578125 263.066406 L 96.578125 174.78125 C 96.578125 173.152344 97.894531 171.839844 99.519531 171.839844 L 174.9375 171.839844 C 176.566406 171.839844 177.878906 173.152344 177.878906 174.78125 C 177.878906 176.40625 176.566406 177.722656 174.9375 177.722656 L 102.476562 177.722656 L 102.476562 260.125 L 114.25 260.125 C 115.878906 260.125 117.191406 261.441406 117.191406 263.066406 L 117.191406 273.023438 L 142.359375 260.4375 C 142.769531 260.234375 143.222656 260.125 143.675781 260.125 L 214.304688 260.125 L 214.304688 248.351562 C 214.304688 246.726562 215.621094 245.410156 217.246094 245.410156 C 218.875 245.410156 220.1875 246.726562 220.1875 248.351562 L 220.1875 263.066406 C 220.1875 264.695312 218.875 266.011719 217.246094 266.011719 L 144.371094 266.011719 L 115.566406 280.414062 C 115.148438 280.625 114.695312 280.726562 114.242188 280.726562 Z M 114.242188 280.726562 " fill-opacity="1" fill-rule="nonzero"/><path fill="#ffffff" d="M 173.105469 195.378906 L 114.242188 195.378906 C 112.617188 195.378906 111.300781 194.066406 111.300781 192.4375 C 111.300781 190.8125 112.617188 189.496094 114.242188 189.496094 L 173.105469 189.496094 C 174.734375 189.496094 176.046875 190.8125 176.046875 192.4375 C 176.046875 194.058594 174.734375 195.378906 173.105469 195.378906 Z M 173.105469 195.378906 " fill-opacity="1" fill-rule="nonzero"/><path fill="#ffffff" d="M 173.105469 213.039062 L 114.242188 213.039062 C 112.617188 213.039062 111.300781 211.722656 111.300781 210.097656 C 111.300781 208.46875 112.617188 207.152344 114.242188 207.152344 L 173.105469 207.152344 C 174.734375 207.152344 176.046875 208.46875 176.046875 210.097656 C 176.046875 211.722656 174.734375 213.039062 173.105469 213.039062 Z M 173.105469 213.039062 " fill-opacity="1" fill-rule="nonzero"/><path fill="#ffffff" d="M 173.105469 230.695312 L 114.242188 230.695312 C 112.617188 230.695312 111.300781 229.378906 111.300781 227.753906 C 111.300781 226.125 112.617188 224.8125 114.242188 224.8125 L 173.105469 224.8125 C 174.734375 224.8125 176.046875 226.125 176.046875 227.753906 C 176.046875 229.378906 174.734375 230.695312 173.105469 230.695312 Z M 173.105469 230.695312 " fill-opacity="1" fill-rule="nonzero"/><path fill="#ffffff" d="M 173.105469 248.351562 L 114.242188 248.351562 C 112.617188 248.351562 111.300781 247.039062 111.300781 245.410156 C 111.300781 243.785156 112.617188 242.46875 114.242188 242.46875 L 173.105469 242.46875 C 174.734375 242.46875 176.046875 243.785156 176.046875 245.410156 C 176.046875 247.039062 174.734375 248.351562 173.105469 248.351562 Z M 173.105469 248.351562 " fill-opacity="1" fill-rule="nonzero"/><path fill="#ffffff" d="M 234.910156 221.871094 L 199.59375 221.871094 C 197.96875 221.871094 196.652344 220.554688 196.652344 218.929688 C 196.652344 208.558594 192.175781 198.699219 184.355469 191.875 C 179.277344 187.433594 175.207031 182.121094 172.257812 176.078125 C 168.882812 169.144531 167.191406 161.699219 167.230469 153.9375 C 167.292969 140.601562 172.519531 128.085938 181.949219 118.707031 C 191.382812 109.328125 203.921875 104.15625 217.257812 104.15625 C 244.847656 104.15625 267.289062 126.601562 267.289062 154.1875 C 267.289062 168.585938 261.074219 182.296875 250.246094 191.800781 C 242.375 198.703125 237.859375 208.597656 237.859375 218.929688 C 237.851562 220.546875 236.53125 221.871094 234.910156 221.871094 Z M 202.429688 215.980469 L 232.0625 215.980469 C 232.84375 205.035156 237.953125 194.734375 246.347656 187.363281 C 255.90625 178.980469 261.386719 166.878906 261.386719 154.175781 C 261.386719 129.835938 241.585938 110.027344 217.238281 110.027344 C 193.015625 110.027344 173.214844 129.734375 173.09375 153.957031 C 173.0625 160.804688 174.554688 167.371094 177.527344 173.484375 C 180.132812 178.820312 183.726562 183.511719 188.210938 187.433594 C 196.578125 194.730469 201.65625 205.003906 202.429688 215.980469 Z M 202.429688 215.980469 " fill-opacity="1" fill-rule="nonzero"/><path fill="#ffffff" d="M 234.910156 233.636719 L 199.59375 233.636719 C 197.96875 233.636719 196.652344 232.324219 196.652344 230.695312 L 196.652344 218.921875 C 196.652344 217.292969 197.96875 215.980469 199.59375 215.980469 L 234.910156 215.980469 C 236.539062 215.980469 237.851562 217.292969 237.851562 218.921875 L 237.851562 230.695312 C 237.851562 232.324219 236.53125 233.636719 234.910156 233.636719 Z M 202.539062 227.753906 L 231.96875 227.753906 L 231.96875 221.871094 L 202.539062 221.871094 Z M 202.539062 227.753906 " fill-opacity="1" fill-rule="nonzero"/><path fill="#ffffff" d="M 217.253906 251.292969 C 209.140625 251.292969 202.539062 244.695312 202.539062 236.578125 L 202.539062 230.695312 C 202.539062 229.066406 203.851562 227.753906 205.480469 227.753906 L 229.019531 227.753906 C 230.648438 227.753906 231.960938 229.066406 231.960938 230.695312 L 231.960938 236.578125 C 231.960938 244.695312 225.363281 251.292969 217.253906 251.292969 Z M 208.421875 233.636719 L 208.421875 236.578125 C 208.421875 241.449219 212.382812 245.410156 217.253906 245.410156 C 222.121094 245.410156 226.085938 241.449219 226.085938 236.578125 L 226.085938 233.636719 Z M 208.421875 233.636719 " fill-opacity="1" fill-rule="nonzero"/><path fill="#ffffff" d="M 217.253906 221.871094 C 215.625 221.871094 214.3125 220.554688 214.3125 218.929688 L 214.3125 180.671875 C 214.3125 179.042969 215.625 177.730469 217.253906 177.730469 C 218.878906 177.730469 220.195312 179.042969 220.195312 180.671875 L 220.195312 218.929688 C 220.195312 220.546875 218.875 221.871094 217.253906 221.871094 Z M 217.253906 221.871094 " fill-opacity="1" fill-rule="nonzero"/><path fill="#ffffff" d="M 217.253906 183.605469 C 209.140625 183.605469 202.539062 177.007812 202.539062 168.890625 C 202.539062 160.773438 209.136719 154.175781 217.253906 154.175781 C 225.371094 154.175781 231.96875 160.773438 231.96875 168.890625 C 231.96875 177.007812 225.363281 183.605469 217.253906 183.605469 Z M 217.253906 160.066406 C 212.382812 160.066406 208.421875 164.027344 208.421875 168.898438 C 208.421875 173.765625 212.382812 177.730469 217.253906 177.730469 C 222.121094 177.730469 226.085938 173.765625 226.085938 168.898438 C 226.085938 164.027344 222.117188 160.066406 217.253906 160.066406 Z M 217.253906 160.066406 " fill-opacity="1" fill-rule="nonzero"/><path fill="#ffffff" d="M 184.878906 108.558594 C 184.125 108.558594 183.375 108.273438 182.800781 107.699219 L 175.441406 100.339844 C 174.292969 99.191406 174.292969 97.328125 175.441406 96.179688 C 176.589844 95.03125 178.453125 95.03125 179.601562 96.179688 L 186.960938 103.539062 C 188.109375 104.6875 188.109375 106.550781 186.960938 107.699219 C 186.386719 108.273438 185.632812 108.558594 184.878906 108.558594 Z M 184.878906 108.558594 " fill-opacity="1" fill-rule="nonzero"/><path fill="#ffffff" d="M 168.082031 120.652344 C 167.597656 120.652344 167.109375 120.53125 166.65625 120.28125 L 157.5625 115.230469 C 156.136719 114.4375 155.628906 112.652344 156.417969 111.226562 C 157.210938 109.804688 158.996094 109.292969 160.417969 110.085938 L 169.511719 115.140625 C 170.9375 115.929688 171.445312 117.71875 170.65625 119.140625 C 170.125 120.105469 169.117188 120.652344 168.082031 120.652344 Z M 168.082031 120.652344 " fill-opacity="1" fill-rule="nonzero"/><path fill="#ffffff" d="M 162.804688 142.40625 L 152.507812 142.40625 C 150.878906 142.40625 149.566406 141.09375 149.566406 139.464844 C 149.566406 137.839844 150.878906 136.523438 152.507812 136.523438 L 162.804688 136.523438 C 164.433594 136.523438 165.75 137.839844 165.75 139.464844 C 165.75 141.09375 164.433594 142.40625 162.804688 142.40625 Z M 162.804688 142.40625 " fill-opacity="1" fill-rule="nonzero"/><path fill="#ffffff" d="M 249.625 108.558594 C 248.875 108.558594 248.121094 108.273438 247.546875 107.699219 C 246.398438 106.550781 246.398438 104.6875 247.546875 103.539062 L 254.902344 96.179688 C 256.050781 95.03125 257.914062 95.03125 259.0625 96.179688 C 260.214844 97.328125 260.214844 99.191406 259.0625 100.339844 L 251.707031 107.699219 C 251.132812 108.273438 250.378906 108.558594 249.625 108.558594 Z M 249.625 108.558594 " fill-opacity="1" fill-rule="nonzero"/><path fill="#ffffff" d="M 266.414062 120.652344 C 265.382812 120.652344 264.378906 120.105469 263.835938 119.140625 C 263.046875 117.71875 263.5625 115.929688 264.980469 115.140625 L 274.074219 110.085938 C 275.496094 109.292969 277.285156 109.804688 278.074219 111.226562 C 278.867188 112.652344 278.347656 114.4375 276.933594 115.230469 L 267.839844 120.28125 C 267.386719 120.53125 266.902344 120.652344 266.414062 120.652344 Z M 266.414062 120.652344 " fill-opacity="1" fill-rule="nonzero"/><path fill="#ffffff" d="M 281.992188 142.40625 L 271.691406 142.40625 C 270.066406 142.40625 268.75 141.09375 268.75 139.464844 C 268.75 137.839844 270.066406 136.523438 271.691406 136.523438 L 281.992188 136.523438 C 283.621094 136.523438 284.933594 137.839844 284.933594 139.464844 C 284.933594 141.09375 283.621094 142.40625 281.992188 142.40625 Z M 281.992188 142.40625 " fill-opacity="1" fill-rule="nonzero"/><g clip-path="url(#8fc586fed8)"><path fill="#ffffff" d="M 334.824219 127.164062 C 326.949219 108.542969 315.679688 91.820312 301.324219 77.464844 C 286.96875 63.113281 270.25 51.84375 251.625 43.960938 C 232.339844 35.8125 211.859375 31.675781 190.761719 31.675781 C 169.667969 31.675781 149.1875 35.8125 129.902344 43.960938 C 111.28125 51.835938 94.5625 63.105469 80.203125 77.464844 C 65.851562 91.816406 54.582031 108.535156 46.703125 127.164062 C 38.554688 146.445312 34.417969 166.925781 34.417969 188.023438 C 34.417969 209.121094 38.554688 229.597656 46.703125 248.882812 C 54.578125 267.503906 65.847656 284.222656 80.203125 298.582031 C 94.558594 312.933594 111.277344 324.203125 129.902344 332.082031 C 149.1875 340.234375 169.667969 344.367188 190.761719 344.367188 C 211.859375 344.367188 232.339844 340.234375 251.625 332.082031 C 270.246094 324.210938 286.964844 312.9375 301.324219 298.582031 C 315.675781 284.230469 326.945312 267.511719 334.824219 248.882812 C 342.972656 229.597656 347.109375 209.121094 347.109375 188.023438 C 347.109375 166.90625 342.972656 146.433594 334.824219 127.164062 Z M 341.550781 188.023438 C 341.550781 271.167969 273.90625 338.808594 190.761719 338.808594 C 107.621094 338.808594 39.976562 271.167969 39.976562 188.023438 C 39.976562 104.878906 107.621094 37.234375 190.761719 37.234375 C 273.90625 37.234375 341.550781 104.878906 341.550781 188.023438 Z M 341.550781 188.023438 " fill-opacity="1" fill-rule="nonzero"/></g></svg>