<svg xmlns="http://www.w3.org/2000/svg" xmlns:xlink="http://www.w3.org/1999/xlink" width="500" zoomAndPan="magnify" viewBox="0 0 375 374.999991" height="500" preserveAspectRatio="xMidYMid meet" version="1.0"><defs><clipPath id="1d676f151f"><path d="M 92.480469 44.882812 L 282.230469 44.882812 L 282.230469 329.882812 L 92.480469 329.882812 Z M 92.480469 44.882812 " clip-rule="nonzero"/></clipPath></defs><path fill="#ffffff" d="M 187.496094 76.148438 L 186.402344 77.46875 C 186.402344 77.46875 184.539062 79.742188 179.359375 83.722656 C 174.183594 87.703125 165.765625 93.304688 152.867188 99.695312 C 147.1875 102.511719 143.390625 105.398438 141.070312 109.257812 C 138.75 113.117188 137.996094 117.777344 137.996094 123.9375 C 138.007812 129.679688 139.1875 135.339844 141.351562 140.683594 L 135.085938 140.683594 C 134.9375 140.683594 134.804688 140.691406 134.628906 140.722656 C 134.542969 140.738281 134.453125 140.746094 134.269531 140.824219 C 134.175781 140.859375 134.054688 140.90625 133.871094 141.0625 C 133.683594 141.21875 133.359375 141.601562 133.359375 142.15625 L 133.359375 148.371094 L 125.535156 148.371094 C 125.265625 148.371094 125.019531 148.394531 124.714844 148.503906 C 124.5625 148.5625 124.390625 148.632812 124.171875 148.820312 C 123.953125 149.007812 123.644531 149.417969 123.644531 149.960938 L 123.644531 296.976562 C 123.644531 297.519531 123.953125 297.925781 124.171875 298.117188 C 124.390625 298.304688 124.5625 298.375 124.714844 298.429688 C 125.019531 298.542969 125.265625 298.566406 125.535156 298.566406 L 249.457031 298.566406 C 249.726562 298.566406 249.972656 298.542969 250.277344 298.429688 C 250.429688 298.375 250.605469 298.304688 250.820312 298.117188 C 251.039062 297.925781 251.347656 297.519531 251.347656 296.976562 L 251.347656 149.960938 C 251.347656 149.414062 251.039062 149.007812 250.820312 148.820312 C 250.601562 148.632812 250.429688 148.5625 250.277344 148.503906 C 249.972656 148.394531 249.726562 148.371094 249.457031 148.371094 L 241.632812 148.371094 L 241.632812 142.15625 C 241.632812 141.601562 241.308594 141.21875 241.125 141.0625 C 240.9375 140.90625 240.816406 140.859375 240.726562 140.824219 C 240.542969 140.746094 240.453125 140.738281 240.367188 140.722656 C 240.191406 140.691406 240.058594 140.683594 239.910156 140.683594 L 233.644531 140.683594 C 235.808594 135.339844 236.988281 129.679688 236.996094 123.9375 C 236.996094 117.777344 236.246094 113.117188 233.925781 109.257812 C 231.605469 105.398438 227.808594 102.511719 222.125 99.695312 C 209.230469 93.304688 200.808594 87.703125 195.632812 83.722656 C 190.457031 79.742188 188.589844 77.46875 188.589844 77.46875 Z M 187.496094 80.414062 C 188.496094 81.453125 190.234375 83.15625 193.902344 85.976562 C 199.238281 90.078125 207.816406 95.773438 220.863281 102.242188 C 226.308594 104.9375 229.550781 107.496094 231.492188 110.722656 C 233.429688 113.945312 234.15625 118.011719 234.15625 123.933594 C 234.144531 129.984375 232.820312 135.964844 230.261719 141.511719 L 229.332031 143.527344 L 238.792969 143.527344 L 238.792969 151.207031 L 248.507812 151.207031 L 248.507812 295.726562 L 126.488281 295.726562 L 126.488281 151.207031 L 136.199219 151.207031 L 136.199219 143.527344 L 145.660156 143.527344 L 144.730469 141.511719 C 142.171875 135.964844 140.847656 129.984375 140.835938 123.9375 L 140.835938 123.933594 C 140.835938 118.007812 141.5625 113.945312 143.503906 110.71875 C 145.441406 107.496094 148.6875 104.9375 154.128906 102.242188 C 167.175781 95.773438 175.757812 90.078125 181.09375 85.976562 C 184.757812 83.15625 186.5 81.453125 187.496094 80.414062 Z M 187.496094 80.414062 " fill-opacity="1" fill-rule="nonzero"/><g clip-path="url(#1d676f151f)"><path fill="#ffffff" d="M 94.378906 44.882812 C 94.128906 44.882812 93.902344 44.902344 93.613281 45 C 93.46875 45.050781 93.304688 45.109375 93.085938 45.285156 C 92.867188 45.460938 92.523438 45.867188 92.523438 46.449219 L 92.523438 328.542969 C 92.523438 329.125 92.867188 329.53125 93.085938 329.707031 C 93.304688 329.882812 93.46875 329.941406 93.613281 329.992188 C 93.902344 330.089844 94.128906 330.109375 94.378906 330.109375 L 280.617188 330.109375 C 280.867188 330.109375 281.09375 330.089844 281.382812 329.992188 C 281.523438 329.941406 281.6875 329.882812 281.90625 329.707031 C 282.128906 329.53125 282.472656 329.125 282.472656 328.542969 L 282.472656 46.449219 C 282.472656 45.867188 282.128906 45.460938 281.90625 45.285156 C 281.6875 45.109375 281.523438 45.050781 281.382812 45 C 281.09375 44.902344 280.867188 44.882812 280.617188 44.882812 Z M 95.363281 47.722656 L 279.632812 47.722656 L 279.632812 327.269531 L 95.363281 327.269531 Z M 95.363281 47.722656 " fill-opacity="1" fill-rule="nonzero"/></g><path fill="#ffffff" d="M 106.019531 56.925781 C 105.777344 56.925781 105.558594 56.945312 105.273438 57.046875 C 105.132812 57.097656 104.96875 57.160156 104.753906 57.339844 C 104.539062 57.519531 104.214844 57.921875 104.214844 58.480469 L 104.214844 316.511719 C 104.214844 317.070312 104.539062 317.472656 104.753906 317.652344 C 104.96875 317.832031 105.132812 317.898438 105.273438 317.945312 C 105.558594 318.046875 105.777344 318.066406 106.019531 318.066406 L 268.976562 318.066406 C 269.214844 318.066406 269.4375 318.046875 269.71875 317.945312 C 269.863281 317.898438 270.027344 317.832031 270.242188 317.652344 C 270.457031 317.472656 270.777344 317.070312 270.777344 316.511719 L 270.777344 58.480469 C 270.777344 57.921875 270.457031 57.519531 270.242188 57.339844 C 270.027344 57.160156 269.863281 57.097656 269.71875 57.046875 C 269.4375 56.945312 269.214844 56.925781 268.976562 56.925781 Z M 107.054688 59.765625 L 267.9375 59.765625 L 267.9375 315.226562 L 107.054688 315.226562 Z M 107.054688 59.765625 " fill-opacity="1" fill-rule="nonzero"/></svg>