<svg xmlns="http://www.w3.org/2000/svg" xmlns:xlink="http://www.w3.org/1999/xlink" width="500" zoomAndPan="magnify" viewBox="0 0 375 374.999991" height="500" preserveAspectRatio="xMidYMid meet" version="1.0"><defs><clipPath id="87b7a9d9bb"><path d="M 74.921875 106.933594 L 254.867188 106.933594 L 254.867188 268.066406 L 74.921875 268.066406 Z M 74.921875 106.933594 " clip-rule="nonzero"/></clipPath><clipPath id="dbecaaa1ba"><path d="M 273.480469 185.195312 L 318.65625 185.195312 L 318.65625 189.078125 L 273.480469 189.078125 Z M 273.480469 185.195312 " clip-rule="nonzero"/></clipPath></defs><g clip-path="url(#87b7a9d9bb)"><path fill="#ffffff" d="M 222.617188 264.269531 C 218.9375 264.269531 215.394531 262.242188 212.132812 258.617188 L 212.046875 258.507812 C 211.210938 257.40625 210.453125 256.445312 209.730469 255.574219 L 209.597656 255.398438 C 204.917969 248.683594 200.96875 238.542969 198.242188 226.296875 L 227.707031 221.042969 C 236.707031 220.726562 241.558594 203.617188 241.558594 187.5 C 241.558594 171.34375 236.683594 154.1875 227.644531 153.953125 L 227.644531 153.949219 C 227.417969 153.929688 206.527344 151.859375 197.925781 150.171875 C 202.867188 126.851562 212.191406 110.730469 222.617188 110.730469 C 238.023438 110.730469 251.035156 145.886719 251.035156 187.5 C 251.035156 229.113281 238.023438 264.269531 222.617188 264.269531 Z M 213.359375 187.5 C 213.359375 199.835938 216.203125 212.753906 221.570312 218.277344 L 197.464844 222.578125 C 195.390625 211.992188 194.203125 200.046875 194.203125 187.5 C 194.203125 175.535156 195.28125 164.109375 197.183594 153.894531 C 203.128906 155.058594 214.269531 156.351562 221.214844 157.101562 C 216.078125 162.824219 213.359375 175.4375 213.359375 187.5 Z M 227.457031 217.257812 C 222.585938 217.257812 217.15625 205.039062 217.15625 187.5 C 217.15625 169.960938 222.585938 157.742188 227.457031 157.742188 C 232.332031 157.742188 237.757812 169.960938 237.757812 187.5 C 237.757812 205.039062 232.332031 217.257812 227.457031 217.257812 Z M 151.59375 216.988281 L 151.601562 216.925781 L 150.078125 216.417969 C 149.1875 216.125 148.296875 215.851562 147.40625 215.582031 C 144.917969 214.828125 142.441406 214.140625 140.050781 213.542969 C 136.292969 212.589844 132.414062 211.734375 128.519531 211.007812 L 128.511719 211.0625 C 128.507812 211.058594 128.507812 211.058594 128.503906 211.058594 C 123.40625 210.121094 118.292969 209.40625 113.3125 208.933594 C 111.894531 208.796875 110.464844 208.695312 109.039062 208.59375 C 101.957031 189.121094 107.367188 170.84375 109.003906 166.152344 C 127.597656 165.792969 168.386719 161.160156 199.695312 130.378906 C 193.925781 144.867188 190.402344 164.964844 190.402344 187.5 C 190.402344 210.1875 193.972656 230.398438 199.8125 244.90625 C 186.886719 232.71875 170.726562 223.355469 151.59375 216.988281 Z M 141.40625 226.984375 L 141.40625 217.9375 C 143.011719 218.367188 144.636719 218.820312 146.273438 219.316406 C 146.589844 219.414062 146.90625 219.511719 147.226562 219.609375 C 146.347656 223.109375 144.132812 225.859375 141.40625 226.984375 Z M 126.351562 264.328125 C 123.300781 264.328125 120.445312 263.144531 118.300781 260.988281 C 116.148438 258.851562 114.964844 255.992188 114.964844 252.945312 L 114.964844 212.929688 C 119.199219 213.386719 123.511719 214.003906 127.8125 214.796875 L 127.800781 214.847656 C 131.152344 215.472656 134.476562 216.207031 137.734375 217.007812 L 137.734375 252.945312 C 137.734375 259.222656 132.625 264.328125 126.351562 264.328125 Z M 99.402344 208.253906 C 99.175781 208.253906 98.964844 208.246094 98.753906 208.242188 C 91.816406 189.691406 97.199219 170.746094 98.785156 165.960938 C 98.960938 165.953125 99.132812 165.945312 99.320312 165.945312 C 99.777344 165.988281 101.824219 166.140625 105.101562 166.175781 C 103.023438 172.53125 98.757812 189.589844 105.058594 208.359375 C 101.519531 208.210938 99.46875 208.253906 99.402344 208.253906 Z M 78.722656 187.09375 C 78.722656 181.429688 80.875 176.113281 84.789062 172.125 C 87.535156 169.324219 90.992188 167.398438 94.742188 166.511719 C 92.691406 173.269531 88.8125 190.21875 94.648438 207.664062 C 85.515625 205.445312 78.722656 196.957031 78.722656 187.09375 Z M 222.617188 106.933594 C 217.417969 106.933594 212.542969 109.878906 208.234375 115.136719 L 208.105469 115.039062 C 176.496094 157.15625 127.378906 162.171875 107.722656 162.375 C 102.65625 162.441406 99.609375 162.160156 99.578125 162.15625 L 99.402344 162.148438 C 98.640625 162.148438 97.949219 162.179688 97.316406 162.242188 C 91.570312 162.734375 86.15625 165.300781 82.078125 169.464844 C 77.464844 174.164062 74.921875 180.425781 74.921875 187.09375 C 74.921875 199.964844 84.757812 210.886719 97.289062 211.957031 C 97.945312 212.023438 98.613281 212.019531 99.449219 212.054688 C 99.476562 212.046875 102.539062 211.984375 107.625 212.292969 C 108.84375 212.371094 110.070312 212.480469 111.292969 212.585938 L 111.292969 252.945312 C 111.292969 256.976562 112.859375 260.757812 115.703125 263.585938 C 118.535156 266.433594 122.316406 268.003906 126.351562 268.003906 C 134.652344 268.003906 141.40625 261.246094 141.40625 252.945312 L 141.40625 231.113281 C 145.945312 229.96875 149.578125 226.027344 150.953125 220.78125 C 174.25 228.636719 192.953125 241.027344 206.542969 257.664062 L 206.75 257.933594 C 206.769531 257.957031 206.789062 257.984375 206.808594 258.007812 C 207.488281 258.949219 208.183594 259.828125 208.898438 260.644531 C 208.9375 260.699219 208.984375 260.753906 209.027344 260.808594 L 209.035156 260.800781 C 213.144531 265.464844 217.734375 268.066406 222.617188 268.066406 C 240.683594 268.066406 254.835938 232.679688 254.835938 187.5 C 254.835938 142.324219 240.683594 106.933594 222.617188 106.933594 " fill-opacity="1" fill-rule="nonzero"/></g><g clip-path="url(#dbecaaa1ba)"><path fill="#ffffff" d="M 316.757812 189.050781 L 275.425781 189.050781 C 274.375 189.050781 273.527344 188.203125 273.527344 187.152344 C 273.527344 186.101562 274.375 185.253906 275.425781 185.253906 L 316.757812 185.253906 C 317.808594 185.253906 318.660156 186.101562 318.660156 187.152344 C 318.660156 188.203125 317.808594 189.050781 316.757812 189.050781 " fill-opacity="1" fill-rule="nonzero"/></g><path fill="#ffffff" d="M 268.371094 153.460938 C 267.621094 153.460938 266.910156 153.011719 266.609375 152.273438 C 266.214844 151.300781 266.6875 150.191406 267.660156 149.800781 L 305.984375 134.316406 C 306.957031 133.921875 308.066406 134.394531 308.457031 135.367188 C 308.851562 136.339844 308.378906 137.445312 307.40625 137.839844 L 269.082031 153.320312 C 268.851562 153.417969 268.609375 153.460938 268.371094 153.460938 " fill-opacity="1" fill-rule="nonzero"/><path fill="#ffffff" d="M 306.953125 240.179688 C 306.71875 240.179688 306.480469 240.132812 306.246094 240.039062 L 267.921875 224.554688 C 266.945312 224.164062 266.476562 223.054688 266.871094 222.082031 C 267.261719 221.109375 268.367188 220.640625 269.34375 221.035156 L 307.667969 236.519531 C 308.640625 236.910156 309.109375 238.019531 308.71875 238.988281 C 308.417969 239.730469 307.707031 240.179688 306.953125 240.179688 " fill-opacity="1" fill-rule="nonzero"/></svg>