<svg xmlns="http://www.w3.org/2000/svg" xmlns:xlink="http://www.w3.org/1999/xlink" width="500" zoomAndPan="magnify" viewBox="0 0 375 374.999991" height="500" preserveAspectRatio="xMidYMid meet" version="1.0"><defs><clipPath id="818375d765"><path d="M 110 46 L 265 46 L 265 316.542969 L 110 316.542969 Z M 110 46 " clip-rule="nonzero"/></clipPath><clipPath id="20bdf25f2d"><path d="M 98 29 L 277.246094 29 L 277.246094 316.542969 L 98 316.542969 Z M 98 29 " clip-rule="nonzero"/></clipPath><clipPath id="424252838b"><path d="M 138 140.601562 L 239 140.601562 L 239 244.851562 L 138 244.851562 Z M 138 140.601562 " clip-rule="nonzero"/></clipPath></defs><g clip-path="url(#818375d765)"><path fill="#ffffff" d="M 186.675781 46.625 C 184.421875 52.203125 181.960938 57.328125 177.109375 61.105469 C 174.746094 62.945312 172.21875 64.714844 169.5625 66.113281 C 165.601562 68.199219 161.527344 70.058594 157.589844 72.191406 C 145.792969 78.574219 134.425781 86.824219 127.230469 98.378906 C 122.492188 105.984375 120.039062 114.71875 119.992188 123.675781 C 120.425781 123.242188 120.855469 122.808594 121.289062 122.375 C 118.226562 122.367188 115.164062 122.363281 112.101562 122.355469 C 111.390625 122.355469 110.785156 122.960938 110.785156 123.675781 C 110.78125 125.378906 110.777344 127.082031 110.773438 128.785156 C 110.765625 133.425781 110.757812 138.0625 110.75 142.699219 C 110.734375 149.558594 110.730469 156.417969 110.730469 163.277344 C 110.726562 171.648438 110.726562 180.015625 110.726562 188.386719 C 110.726562 197.507812 110.726562 206.628906 110.726562 215.75 C 110.726562 225.003906 110.726562 234.253906 110.722656 243.507812 C 110.722656 252.136719 110.722656 260.765625 110.722656 269.394531 C 110.722656 276.6875 110.722656 283.980469 110.722656 291.273438 C 110.722656 296.519531 110.722656 301.765625 110.71875 307.011719 C 110.71875 309.496094 110.648438 311.988281 110.71875 314.46875 C 110.722656 314.578125 110.71875 314.683594 110.71875 314.789062 C 110.71875 315.539062 111.351562 316.171875 112.101562 316.171875 C 117.105469 316.171875 122.109375 316.171875 127.113281 316.171875 C 139.125 316.171875 151.140625 316.175781 163.15625 316.175781 C 177.6875 316.175781 192.222656 316.175781 206.757812 316.175781 C 219.316406 316.179688 231.875 316.179688 244.433594 316.179688 C 250.511719 316.179688 256.636719 316.402344 262.710938 316.179688 C 262.792969 316.175781 262.878906 316.179688 262.960938 316.179688 C 263.710938 316.179688 264.351562 315.542969 264.351562 314.789062 C 264.351562 313.085938 264.351562 311.382812 264.351562 309.675781 C 264.351562 305.039062 264.351562 300.402344 264.351562 295.765625 C 264.351562 288.90625 264.351562 282.042969 264.355469 275.183594 C 264.355469 266.816406 264.351562 258.449219 264.332031 250.078125 C 264.316406 240.957031 264.296875 231.835938 264.277344 222.714844 C 264.257812 213.460938 264.238281 204.207031 264.21875 194.957031 C 264.203125 186.328125 264.183594 177.699219 264.167969 169.070312 C 264.152344 161.777344 264.136719 154.480469 264.121094 147.1875 C 264.109375 141.941406 264.097656 136.695312 264.089844 131.453125 C 264.082031 128.96875 264.148438 126.476562 264.074219 123.996094 C 264.070312 123.886719 264.074219 123.78125 264.070312 123.671875 C 264.070312 123.074219 263.5625 122.5625 262.960938 122.5625 C 259.898438 122.570312 256.835938 122.574219 253.773438 122.582031 C 254.136719 122.945312 254.5 123.308594 254.863281 123.671875 C 254.820312 115.664062 252.863281 107.8125 249 100.785156 C 245.5625 94.539062 240.78125 89.105469 235.371094 84.496094 C 226.648438 77.058594 216.554688 72.050781 206.394531 66.941406 C 203.960938 65.71875 201.738281 64.242188 199.515625 62.660156 C 196.761719 60.699219 194.242188 58.464844 192.375 55.621094 C 190.566406 52.867188 189.238281 49.78125 188.039062 46.722656 C 187.796875 46.09375 186.773438 46.367188 187.023438 47 C 189.015625 52.089844 190.933594 57.207031 195.027344 61.027344 C 197.625 63.453125 200.683594 65.671875 203.785156 67.417969 C 207.496094 69.503906 211.398438 71.25 215.148438 73.265625 C 226.75 79.5 238.054688 87.433594 245.304688 98.660156 C 250.144531 106.152344 252.667969 114.753906 252.679688 123.671875 C 252.683594 124.265625 253.179688 124.765625 253.773438 124.765625 C 256.835938 124.773438 259.898438 124.777344 262.960938 124.785156 C 262.589844 124.414062 262.21875 124.042969 261.851562 123.671875 C 261.847656 125.378906 261.84375 127.082031 261.839844 128.785156 C 261.828125 133.425781 261.820312 138.0625 261.8125 142.699219 C 261.796875 149.558594 261.78125 156.417969 261.769531 163.277344 C 261.75 171.648438 261.734375 180.015625 261.714844 188.386719 C 261.695312 197.507812 261.679688 206.628906 261.660156 215.75 C 261.640625 225.003906 261.621094 234.253906 261.601562 243.507812 C 261.585938 252.136719 261.566406 260.765625 261.566406 269.394531 C 261.570312 276.6875 261.570312 283.980469 261.570312 291.273438 C 261.570312 296.519531 261.570312 301.765625 261.570312 307.011719 C 261.570312 309.449219 261.320312 312.039062 261.570312 314.46875 C 261.582031 314.574219 261.570312 314.683594 261.570312 314.789062 C 262.035156 314.328125 262.496094 313.863281 262.960938 313.398438 C 257.957031 313.398438 252.953125 313.398438 247.949219 313.402344 C 235.9375 313.402344 223.921875 313.402344 211.90625 313.402344 C 197.375 313.402344 182.839844 313.40625 168.304688 313.40625 C 155.746094 313.40625 143.1875 313.40625 130.628906 313.40625 C 126.511719 313.40625 122.394531 313.40625 118.28125 313.40625 C 116.367188 313.40625 114.25 313.152344 112.351562 313.410156 C 112.269531 313.417969 112.183594 313.410156 112.101562 313.410156 C 112.5625 313.867188 113.023438 314.328125 113.484375 314.789062 C 113.484375 313.085938 113.484375 311.382812 113.484375 309.675781 C 113.484375 305.039062 113.484375 300.402344 113.480469 295.765625 C 113.480469 288.90625 113.480469 282.042969 113.480469 275.183594 C 113.480469 266.816406 113.480469 258.449219 113.480469 250.078125 C 113.480469 240.957031 113.480469 231.835938 113.476562 222.714844 C 113.476562 213.460938 113.476562 204.207031 113.476562 194.957031 C 113.476562 186.328125 113.476562 177.699219 113.476562 169.070312 C 113.472656 161.773438 113.476562 154.480469 113.464844 147.1875 C 113.453125 141.941406 113.441406 136.695312 113.433594 131.453125 C 113.429688 129.019531 113.6875 126.417969 113.417969 123.992188 C 113.40625 123.890625 113.417969 123.777344 113.417969 123.671875 C 112.980469 124.113281 112.539062 124.550781 112.101562 124.992188 C 115.164062 124.984375 118.226562 124.980469 121.289062 124.972656 C 121.992188 124.972656 122.589844 124.378906 122.589844 123.671875 C 122.601562 115.765625 124.566406 108.046875 128.484375 101.167969 C 132.027344 94.945312 136.921875 89.613281 142.414062 85.058594 C 147.3125 80.996094 152.707031 77.558594 158.273438 74.492188 C 162.269531 72.292969 166.402344 70.363281 170.441406 68.246094 C 173.328125 66.730469 176.015625 64.785156 178.539062 62.734375 C 183.613281 58.609375 186.121094 53.078125 188.386719 47.097656 C 188.792969 46.019531 187.097656 45.585938 186.675781 46.625 Z M 186.675781 46.625 " fill-opacity="1" fill-rule="nonzero"/></g><g clip-path="url(#20bdf25f2d)"><path fill="#ffffff" d="M 186.765625 29.484375 C 185.476562 32.398438 184.175781 35.328125 182.445312 38.015625 C 180.578125 40.910156 178.164062 43.25 175.347656 45.21875 C 172.601562 47.136719 169.714844 48.992188 166.683594 50.449219 C 162.019531 52.691406 157.238281 54.675781 152.59375 56.964844 C 139.167969 63.585938 125.929688 72.15625 117.335938 84.691406 C 111.882812 92.644531 108.933594 101.960938 108.878906 111.605469 C 109.3125 111.171875 109.746094 110.738281 110.179688 110.304688 C 106.605469 110.300781 103.027344 110.292969 99.453125 110.285156 C 98.738281 110.285156 98.132812 110.890625 98.132812 111.605469 C 98.128906 113.417969 98.125 115.230469 98.121094 117.042969 C 98.113281 121.972656 98.105469 126.90625 98.097656 131.835938 C 98.085938 139.128906 98.078125 146.421875 98.078125 153.71875 C 98.078125 162.617188 98.078125 171.515625 98.078125 180.414062 C 98.078125 190.109375 98.078125 199.808594 98.078125 209.507812 C 98.074219 219.347656 98.074219 229.183594 98.074219 239.023438 C 98.074219 248.199219 98.074219 257.371094 98.074219 266.546875 C 98.074219 274.304688 98.074219 282.058594 98.070312 289.8125 C 98.070312 295.390625 98.070312 300.96875 98.070312 306.546875 C 98.070312 309.183594 97.996094 311.835938 98.070312 314.476562 C 98.074219 314.589844 98.070312 314.703125 98.070312 314.816406 C 98.070312 315.5625 98.703125 316.195312 99.453125 316.195312 C 105.3125 316.199219 111.171875 316.199219 117.03125 316.199219 C 131.097656 316.199219 145.160156 316.199219 159.226562 316.199219 C 176.179688 316.203125 193.132812 316.203125 210.085938 316.203125 C 224.726562 316.203125 239.367188 316.203125 254.011719 316.207031 C 261.097656 316.207031 268.234375 316.449219 275.320312 316.207031 C 275.414062 316.203125 275.511719 316.207031 275.609375 316.207031 C 276.363281 316.207031 277 315.570312 277 314.816406 C 277 313.003906 277 311.191406 277 309.378906 C 277 304.449219 277.003906 299.515625 277.003906 294.585938 C 277.003906 287.292969 277.003906 280 277.003906 272.703125 C 277.003906 263.804688 276.996094 254.910156 276.976562 246.011719 C 276.960938 236.3125 276.941406 226.613281 276.921875 216.914062 C 276.90625 207.074219 276.886719 197.238281 276.867188 187.398438 C 276.851562 178.222656 276.832031 169.050781 276.816406 159.875 C 276.800781 152.117188 276.785156 144.363281 276.773438 136.609375 C 276.761719 131.03125 276.75 125.453125 276.742188 119.875 C 276.734375 117.238281 276.804688 114.585938 276.726562 111.949219 C 276.722656 111.832031 276.726562 111.71875 276.726562 111.605469 C 276.722656 111.003906 276.214844 110.492188 275.609375 110.492188 C 272.035156 110.5 268.457031 110.503906 264.882812 110.511719 C 265.246094 110.875 265.609375 111.242188 265.976562 111.605469 C 265.929688 103.046875 263.613281 94.707031 259.199219 87.371094 C 255.089844 80.542969 249.441406 74.761719 243.167969 69.898438 C 232.910156 61.941406 221.226562 56.703125 209.507812 51.335938 C 206.664062 50.035156 204.039062 48.449219 201.410156 46.742188 C 198.214844 44.667969 195.238281 42.296875 193.015625 39.167969 C 190.941406 36.25 189.398438 32.949219 187.988281 29.667969 C 187.71875 29.042969 186.808594 29.582031 187.074219 30.199219 C 189.550781 35.957031 192.03125 41.496094 197.042969 45.515625 C 200.035156 47.914062 203.371094 50.132812 206.804688 51.863281 C 211.179688 54.0625 215.71875 55.933594 220.117188 58.09375 C 233.339844 64.589844 246.59375 72.867188 255.226562 85.097656 C 260.738281 92.910156 263.769531 102.027344 263.789062 111.605469 C 263.789062 112.199219 264.289062 112.699219 264.882812 112.699219 C 268.457031 112.707031 272.035156 112.714844 275.609375 112.722656 C 275.238281 112.347656 274.867188 111.976562 274.496094 111.605469 C 274.492188 113.417969 274.488281 115.230469 274.484375 117.042969 C 274.476562 121.972656 274.46875 126.90625 274.457031 131.835938 C 274.445312 139.128906 274.429688 146.421875 274.417969 153.71875 C 274.398438 162.617188 274.382812 171.515625 274.367188 180.414062 C 274.347656 190.109375 274.332031 199.808594 274.3125 209.507812 C 274.292969 219.347656 274.273438 229.183594 274.257812 239.023438 C 274.238281 248.199219 274.21875 257.371094 274.21875 266.546875 C 274.21875 274.304688 274.21875 282.058594 274.21875 289.8125 C 274.21875 295.390625 274.21875 300.96875 274.21875 306.546875 C 274.21875 309.132812 273.941406 311.898438 274.21875 314.476562 C 274.230469 314.585938 274.21875 314.703125 274.21875 314.816406 C 274.683594 314.351562 275.148438 313.886719 275.609375 313.425781 C 269.75 313.425781 263.890625 313.425781 258.03125 313.425781 C 243.964844 313.425781 229.902344 313.425781 215.835938 313.429688 C 198.882812 313.429688 181.929688 313.429688 164.976562 313.429688 C 150.335938 313.429688 135.695312 313.433594 121.054688 313.433594 C 116.253906 313.433594 111.453125 313.433594 106.652344 313.433594 C 104.421875 313.433594 101.957031 313.136719 99.746094 313.433594 C 99.652344 313.445312 99.546875 313.433594 99.453125 313.433594 C 99.914062 313.894531 100.375 314.355469 100.832031 314.816406 C 100.832031 313.003906 100.832031 311.191406 100.832031 309.378906 C 100.832031 304.449219 100.832031 299.515625 100.832031 294.585938 C 100.832031 287.292969 100.832031 280 100.832031 272.703125 C 100.832031 263.808594 100.832031 254.910156 100.832031 246.011719 C 100.828125 236.3125 100.828125 226.613281 100.828125 216.914062 C 100.828125 207.074219 100.828125 197.238281 100.828125 187.398438 C 100.828125 178.222656 100.828125 169.050781 100.824219 159.875 C 100.824219 152.117188 100.828125 144.363281 100.816406 136.609375 C 100.804688 131.03125 100.796875 125.453125 100.785156 119.875 C 100.78125 117.292969 101.070312 114.515625 100.773438 111.949219 C 100.761719 111.835938 100.773438 111.71875 100.773438 111.605469 C 100.332031 112.046875 99.890625 112.488281 99.453125 112.925781 C 103.027344 112.921875 106.605469 112.914062 110.179688 112.90625 C 110.886719 112.90625 111.480469 112.3125 111.484375 111.605469 C 111.5 103.078125 113.890625 94.847656 118.414062 87.621094 C 122.601562 80.933594 128.339844 75.289062 134.621094 70.566406 C 140.394531 66.222656 146.664062 62.574219 153.113281 59.332031 C 157.796875 56.976562 162.617188 54.921875 167.351562 52.671875 C 170.707031 51.074219 173.878906 49.027344 176.847656 46.808594 C 179.625 44.734375 182.015625 42.339844 183.886719 39.414062 C 185.738281 36.515625 187.0625 33.332031 188.386719 30.167969 C 188.769531 29.25 187.171875 28.566406 186.765625 29.484375 Z M 186.765625 29.484375 " fill-opacity="1" fill-rule="nonzero"/></g><g clip-path="url(#424252838b)"><path fill="#ffffff" d="M 237.765625 207.734375 C 237.179688 207.445312 236.574219 207.484375 236.011719 207.820312 C 235.804688 207.945312 235.636719 208.132812 235.511719 208.300781 C 235.46875 208.363281 235.40625 208.425781 235.363281 208.464844 C 235.15625 208.695312 234.925781 208.925781 234.71875 209.175781 C 234.257812 209.675781 233.839844 210.15625 233.339844 210.574219 C 225.660156 217.125 216.523438 220.652344 206.128906 221.070312 C 202.3125 221.238281 198.324219 220.734375 193.964844 219.546875 C 174.015625 214.203125 162.039062 194.003906 166.710938 173.597656 C 168.296875 166.667969 171.699219 160.304688 176.8125 154.671875 C 180.027344 151.125 183.824219 148.035156 188.433594 145.195312 C 189.332031 144.65625 190.269531 144.070312 191.191406 143.421875 C 191.441406 143.234375 191.628906 142.984375 191.773438 142.796875 C 191.816406 142.734375 191.878906 142.652344 191.917969 142.589844 L 192.128906 142.339844 L 191.984375 142.066406 C 191.542969 141.230469 190.855469 141.042969 190.1875 140.980469 C 187.140625 140.648438 184.199219 140.691406 181.421875 141.085938 C 175.289062 141.960938 169.40625 143.988281 163.957031 147.117188 C 146.097656 157.425781 136.269531 176.875 138.3125 197.84375 C 139 204.9375 141.066406 211.554688 144.46875 217.542969 C 153.796875 233.945312 167.984375 243.167969 186.597656 244.941406 C 187.828125 245.066406 189.0625 245.109375 190.335938 245.109375 C 194.027344 245.109375 197.867188 244.609375 201.789062 243.625 C 214.351562 240.496094 224.535156 233.402344 232.027344 222.570312 C 234.824219 218.523438 236.785156 214.203125 238.308594 210.511719 C 238.453125 210.15625 238.515625 209.78125 238.597656 209.363281 C 238.722656 208.757812 238.347656 208.027344 237.765625 207.734375 Z M 165.605469 199.054688 C 171.011719 211.699219 180.609375 219.859375 194.152344 223.300781 C 205.777344 226.265625 217.210938 224.535156 228.144531 218.191406 C 229.0625 217.648438 229.941406 217.0625 230.816406 216.480469 C 231.296875 216.144531 231.777344 215.832031 232.253906 215.519531 C 232.382812 215.433594 232.507812 215.351562 232.652344 215.269531 C 232.589844 215.394531 232.527344 215.519531 232.464844 215.644531 C 225.203125 228.707031 214.121094 236.949219 199.558594 240.164062 C 195.050781 241.164062 190.480469 241.476562 185.972656 241.101562 C 178.042969 240.433594 170.738281 238.011719 164.292969 233.921875 C 152.542969 226.453125 145.21875 215.644531 142.484375 201.808594 C 139.085938 184.488281 145.742188 166.085938 159.429688 154.941406 C 165.628906 149.890625 172.804688 146.492188 180.777344 144.800781 C 181.089844 144.738281 181.402344 144.65625 181.714844 144.570312 C 182.382812 144.382812 183.03125 144.214844 183.675781 144.214844 C 183.738281 144.214844 183.800781 144.214844 183.863281 144.214844 C 183.800781 144.257812 183.71875 144.300781 183.613281 144.339844 C 183.488281 144.402344 183.386719 144.464844 183.28125 144.53125 C 180.234375 146.449219 177.460938 148.722656 175.039062 151.269531 C 168.589844 158.09375 164.5625 166.210938 163.0625 175.414062 C 161.664062 183.863281 162.519531 191.8125 165.605469 199.054688 Z M 165.605469 199.054688 " fill-opacity="1" fill-rule="nonzero"/></g><path fill="#ffffff" d="M 188.164062 168.546875 C 187.664062 168.671875 187.265625 169.027344 187.121094 169.484375 C 186.972656 169.945312 187.101562 170.425781 187.433594 170.800781 L 187.539062 170.925781 C 188.226562 171.699219 188.9375 172.46875 189.730469 173.160156 C 190.960938 174.222656 192.234375 175.246094 193.484375 176.269531 C 194.195312 176.832031 194.882812 177.414062 195.570312 178 C 195.71875 178.125 195.882812 178.25 196.03125 178.355469 C 196.449219 178.667969 196.84375 178.960938 197.074219 179.398438 L 196.613281 181.566406 C 196.175781 183.613281 195.738281 185.660156 195.300781 187.703125 C 195.132812 188.476562 195.007812 189.308594 194.882812 190.144531 C 194.820312 190.667969 195.007812 191.167969 195.40625 191.480469 C 195.757812 191.773438 196.238281 191.835938 196.675781 191.6875 L 197.011719 191.5625 C 197.847656 191.269531 198.679688 190.957031 199.496094 190.542969 C 201.121094 189.6875 202.769531 188.765625 204.355469 187.890625 L 205.921875 187.035156 C 206.296875 186.828125 206.652344 186.617188 207.027344 186.410156 L 207.339844 186.222656 C 207.382812 186.242188 207.402344 186.261719 207.445312 186.285156 C 207.652344 186.386719 207.839844 186.492188 208.027344 186.640625 C 209.929688 188.078125 212.054688 189.414062 214.957031 191 C 215.164062 191.105469 215.375 191.25 215.5625 191.375 C 216.210938 191.792969 216.917969 192.253906 217.835938 192.253906 C 217.941406 192.253906 218.066406 192.253906 218.171875 192.230469 L 218.359375 192.210938 L 218.484375 192.0625 C 219.234375 191.144531 219.089844 190.1875 218.941406 189.351562 C 218.878906 189.019531 218.839844 188.726562 218.839844 188.414062 C 218.839844 188.246094 218.796875 188.101562 218.777344 187.953125 C 218.753906 187.890625 218.753906 187.847656 218.734375 187.808594 L 218.359375 185.53125 C 218.066406 183.695312 217.773438 181.882812 217.460938 180.046875 C 217.335938 179.253906 217.480469 178.75 218.003906 178.269531 C 219.109375 177.269531 220.175781 176.269531 221.15625 175.265625 C 223.03125 173.367188 224.890625 171.425781 226.621094 169.613281 C 226.957031 169.257812 227.058594 168.757812 226.914062 168.277344 C 226.769531 167.796875 226.371094 167.421875 225.890625 167.316406 C 225.203125 167.171875 224.535156 167.085938 223.929688 167.085938 C 222.15625 167.066406 220.382812 167.066406 218.609375 167.042969 C 217.503906 167.042969 216.375 167.042969 215.269531 167.023438 C 214.769531 167.023438 214.289062 167.003906 213.832031 166.980469 L 213.453125 166.960938 C 212.996094 166.523438 212.808594 166.023438 212.597656 165.480469 C 212.535156 165.3125 212.472656 165.167969 212.410156 165 L 211.367188 162.558594 C 210.761719 161.140625 210.15625 159.699219 209.53125 158.28125 C 209.28125 157.71875 208.96875 157.152344 208.570312 156.546875 C 208.238281 156.046875 207.757812 155.753906 207.257812 155.734375 C 206.777344 155.714844 206.339844 155.945312 206.003906 156.359375 C 205.460938 157.027344 204.859375 157.800781 204.441406 158.65625 C 203.648438 160.199219 202.894531 161.785156 202.144531 163.351562 C 201.769531 164.144531 201.394531 164.9375 200.996094 165.730469 C 200.789062 166.167969 200.558594 166.605469 200.328125 167.003906 L 200.164062 167.335938 C 200.121094 167.359375 200.078125 167.359375 200.058594 167.378906 C 199.933594 167.421875 199.847656 167.441406 199.785156 167.441406 L 196.46875 167.691406 C 194.445312 167.835938 192.398438 167.984375 190.375 168.171875 C 189.730469 168.214844 189.039062 168.316406 188.164062 168.546875 Z M 221.988281 170.175781 L 222.550781 170.175781 C 222.511719 170.214844 222.449219 170.257812 222.386719 170.300781 L 220.464844 171.929688 C 218.691406 173.429688 216.9375 174.933594 215.144531 176.394531 C 214.226562 177.144531 213.914062 178.082031 214.183594 179.253906 L 214.707031 181.464844 C 215.125 183.28125 215.542969 185.074219 215.9375 186.890625 C 216.042969 187.390625 216.125 187.933594 216.210938 188.453125 C 215.855469 188.289062 215.519531 188.035156 215.1875 187.785156 C 214.957031 187.621094 214.75 187.453125 214.519531 187.308594 C 212.265625 185.867188 209.949219 184.386719 207.109375 183.382812 L 206.945312 183.320312 L 206.777344 183.382812 C 206.632812 183.445312 206.441406 183.507812 206.277344 183.570312 C 205.839844 183.738281 205.335938 183.90625 204.878906 184.175781 C 203.417969 185.011719 201.957031 185.886719 200.515625 186.765625 L 198.828125 187.785156 C 198.703125 187.847656 198.597656 187.933594 198.472656 188.015625 C 198.242188 188.183594 198.097656 188.289062 197.929688 188.328125 C 197.886719 188.101562 197.949219 187.847656 198.035156 187.496094 L 198.074219 187.371094 C 198.828125 184.488281 199.371094 181.777344 199.785156 179.125 C 199.933594 178.105469 199.683594 177.351562 198.953125 176.789062 C 198.011719 176.058594 197.09375 175.328125 196.15625 174.578125 C 194.882812 173.578125 193.632812 172.574219 192.359375 171.574219 C 192.234375 171.46875 192.085938 171.386719 191.941406 171.28125 C 191.667969 171.113281 191.480469 170.988281 191.378906 170.820312 C 191.417969 170.800781 191.480469 170.78125 191.523438 170.78125 C 193.066406 170.570312 194.613281 170.382812 196.15625 170.175781 C 197.46875 170.007812 198.785156 169.839844 200.101562 169.675781 C 200.496094 169.632812 200.871094 169.527344 201.269531 169.445312 L 201.476562 169.402344 C 202.1875 169.257812 202.730469 168.839844 203.0625 168.234375 C 203.710938 167.042969 204.273438 165.960938 204.792969 164.855469 C 205.359375 163.644531 205.902344 162.433594 206.441406 161.222656 L 206.859375 160.285156 C 206.902344 160.367188 206.921875 160.449219 206.964844 160.535156 C 207.007812 160.617188 207.027344 160.703125 207.070312 160.785156 C 207.488281 161.703125 207.902344 162.621094 208.320312 163.539062 C 208.988281 165 209.636719 166.460938 210.28125 167.941406 C 210.761719 169.007812 211.535156 169.570312 212.722656 169.695312 L 213.164062 169.738281 C 215.332031 169.964844 217.566406 170.195312 219.796875 170.152344 C 220.527344 170.175781 221.257812 170.175781 221.988281 170.175781 Z M 221.988281 170.175781 " fill-opacity="1" fill-rule="nonzero"/></svg>