<svg xmlns="http://www.w3.org/2000/svg" xmlns:xlink="http://www.w3.org/1999/xlink" width="500" zoomAndPan="magnify" viewBox="0 0 375 374.999991" height="500" preserveAspectRatio="xMidYMid meet" version="1.0"><defs><clipPath id="09e617eb13"><path d="M 73.105469 155 L 301.855469 155 L 301.855469 303.378906 L 73.105469 303.378906 Z M 73.105469 155 " clip-rule="nonzero"/></clipPath><clipPath id="a7bba75e7a"><path d="M 73.105469 71.628906 L 145 71.628906 L 145 154 L 73.105469 154 Z M 73.105469 71.628906 " clip-rule="nonzero"/></clipPath><clipPath id="79858e95b1"><path d="M 230 91 L 301.855469 91 L 301.855469 174 L 230 174 Z M 230 91 " clip-rule="nonzero"/></clipPath></defs><g clip-path="url(#09e617eb13)"><path fill="#ffffff" d="M 272.765625 247.59375 L 262.273438 247.59375 C 263.019531 246.5 263.789062 245.410156 264.410156 244.273438 C 265.945312 241.445312 266.984375 238.492188 267.671875 235.472656 C 269.515625 234.257812 271.234375 232.867188 272.789062 231.308594 C 278.683594 225.40625 282.335938 217.265625 282.335938 208.285156 C 282.335938 199.300781 278.683594 191.152344 272.78125 185.257812 C 266.890625 179.363281 258.746094 175.714844 249.765625 175.714844 C 245.835938 175.714844 242.089844 176.445312 238.601562 177.71875 C 237.378906 173.03125 235.015625 168.796875 231.820312 165.332031 C 231.808594 165.316406 231.804688 165.296875 231.789062 165.28125 C 231.613281 165.09375 231.417969 164.925781 231.242188 164.746094 C 230.890625 164.386719 230.554688 164.015625 230.183594 163.675781 C 230.082031 163.589844 229.980469 163.507812 229.882812 163.421875 C 229.609375 163.171875 229.320312 162.945312 229.035156 162.707031 C 228.59375 162.335938 228.144531 161.972656 227.679688 161.628906 C 227.359375 161.398438 227.042969 161.171875 226.71875 160.953125 C 226.253906 160.640625 225.785156 160.339844 225.308594 160.046875 C 224.96875 159.847656 224.625 159.644531 224.273438 159.457031 C 223.769531 159.183594 223.253906 158.929688 222.730469 158.679688 C 222.511719 158.578125 222.308594 158.457031 222.089844 158.355469 C 221.960938 158.300781 221.828125 158.265625 221.707031 158.210938 C 221.171875 157.984375 220.625 157.789062 220.078125 157.59375 C 219.742188 157.476562 219.414062 157.347656 219.070312 157.238281 C 218.472656 157.054688 217.867188 156.902344 217.257812 156.753906 C 216.9375 156.675781 216.625 156.585938 216.308594 156.519531 C 215.640625 156.382812 214.957031 156.289062 214.273438 156.195312 C 213.996094 156.160156 213.71875 156.101562 213.4375 156.074219 C 212.472656 155.976562 211.492188 155.917969 210.503906 155.917969 L 164.496094 155.917969 C 164.492188 155.917969 164.484375 155.917969 164.480469 155.917969 C 163.492188 155.917969 162.519531 155.976562 161.558594 156.074219 C 161.230469 156.109375 160.910156 156.171875 160.578125 156.21875 C 159.949219 156.304688 159.324219 156.394531 158.703125 156.519531 C 158.308594 156.601562 157.933594 156.710938 157.542969 156.804688 C 157.011719 156.9375 156.476562 157.070312 155.957031 157.234375 C 155.535156 157.367188 155.121094 157.515625 154.710938 157.667969 C 154.253906 157.835938 153.789062 158.003906 153.34375 158.1875 C 153.179688 158.257812 153.007812 158.3125 152.84375 158.378906 C 152.578125 158.496094 152.328125 158.648438 152.070312 158.773438 C 151.640625 158.976562 151.21875 159.191406 150.804688 159.410156 C 150.367188 159.648438 149.929688 159.898438 149.503906 160.160156 C 149.136719 160.378906 148.785156 160.609375 148.429688 160.847656 C 147.992188 161.144531 147.550781 161.445312 147.121094 161.761719 C 146.816406 161.996094 146.523438 162.238281 146.222656 162.480469 C 145.789062 162.835938 145.347656 163.1875 144.9375 163.570312 C 144.898438 163.605469 144.851562 163.640625 144.808594 163.679688 C 144.605469 163.867188 144.425781 164.074219 144.226562 164.273438 C 143.855469 164.636719 143.464844 164.980469 143.113281 165.363281 C 143.089844 165.382812 143.082031 165.417969 143.058594 165.449219 C 139.914062 168.894531 137.589844 173.09375 136.386719 177.730469 C 132.898438 176.457031 129.148438 175.71875 125.222656 175.71875 C 116.339844 175.71875 108.289062 179.28125 102.40625 185.058594 L 102.1875 185.261719 C 96.296875 191.152344 92.644531 199.300781 92.644531 208.289062 C 92.644531 217.160156 96.207031 225.214844 101.984375 231.101562 L 102.1875 231.320312 C 103.746094 232.878906 105.472656 234.269531 107.316406 235.484375 C 108.003906 238.503906 109.035156 241.457031 110.570312 244.28125 C 111.191406 245.414062 111.957031 246.503906 112.703125 247.597656 L 102.214844 247.597656 C 94.34375 247.597656 87.171875 250.785156 81.917969 255.925781 L 81.695312 256.128906 C 76.429688 261.386719 73.164062 268.652344 73.164062 276.648438 L 73.164062 299.683594 C 73.164062 301.714844 74.8125 303.367188 76.847656 303.367188 L 173.585938 303.367188 C 175.621094 303.367188 177.269531 301.714844 177.269531 299.683594 L 177.269531 277.464844 C 178.253906 277.539062 179.210938 277.648438 180.214844 277.703125 C 182.726562 277.835938 185.15625 277.90625 187.492188 277.90625 C 189.824219 277.90625 192.253906 277.835938 194.765625 277.703125 C 195.761719 277.648438 196.71875 277.539062 197.703125 277.464844 L 197.703125 299.683594 C 197.703125 301.714844 199.355469 303.367188 201.390625 303.367188 L 298.128906 303.367188 C 300.160156 303.367188 301.8125 301.714844 301.8125 299.683594 L 301.8125 276.648438 C 301.8125 268.652344 298.546875 261.386719 293.277344 256.128906 C 288.023438 250.859375 280.757812 247.59375 272.765625 247.59375 Z M 267.597656 190.46875 C 272.144531 195.019531 274.960938 201.320312 274.960938 208.289062 C 274.960938 215.261719 272.144531 221.558594 267.589844 226.105469 L 267.574219 226.105469 C 265.984375 227.691406 264.179688 229.046875 262.214844 230.171875 C 261.53125 230.5625 260.828125 230.914062 260.117188 231.238281 C 259.777344 231.394531 259.433594 231.539062 259.082031 231.683594 C 258.375 231.96875 257.648438 232.222656 256.917969 232.4375 C 256.492188 232.566406 256.054688 232.667969 255.621094 232.773438 C 255.070312 232.90625 254.507812 233.015625 253.9375 233.117188 C 253.546875 233.179688 253.164062 233.25 252.769531 233.296875 C 251.785156 233.410156 250.785156 233.492188 249.753906 233.492188 C 242.792969 233.492188 236.492188 230.671875 231.933594 226.113281 L 231.832031 226.019531 C 231.554688 225.734375 231.292969 225.429688 231.027344 225.132812 C 230.761719 224.835938 230.484375 224.546875 230.230469 224.234375 C 229.96875 223.914062 229.734375 223.574219 229.488281 223.242188 C 229.253906 222.929688 229.011719 222.628906 228.796875 222.304688 C 228.566406 221.957031 228.359375 221.585938 228.144531 221.222656 C 227.945312 220.890625 227.738281 220.574219 227.558594 220.238281 C 227.347656 219.847656 227.175781 219.441406 226.984375 219.050781 C 226.828125 218.714844 226.652344 218.394531 226.507812 218.054688 C 226.328125 217.625 226.183594 217.183594 226.035156 216.742188 C 225.917969 216.414062 225.78125 216.089844 225.675781 215.746094 C 225.535156 215.289062 225.433594 214.820312 225.316406 214.355469 C 225.234375 214.019531 225.128906 213.691406 225.0625 213.34375 C 224.957031 212.820312 224.894531 212.289062 224.816406 211.753906 C 224.777344 211.453125 224.714844 211.160156 224.683594 210.851562 C 224.609375 210.132812 224.585938 209.398438 224.574219 208.660156 C 224.574219 208.535156 224.558594 208.417969 224.558594 208.289062 C 224.558594 208.289062 224.558594 208.285156 224.558594 208.285156 C 224.558594 206.882812 224.703125 205.523438 224.921875 204.183594 C 224.957031 203.984375 224.972656 203.785156 225.015625 203.585938 C 225.253906 202.328125 225.59375 201.113281 226.003906 199.929688 C 226.082031 199.710938 226.160156 199.484375 226.25 199.265625 C 226.71875 198.046875 227.269531 196.878906 227.90625 195.757812 C 228.003906 195.585938 228.113281 195.417969 228.21875 195.242188 C 228.894531 194.125 229.644531 193.054688 230.484375 192.058594 C 230.945312 191.507812 231.421875 190.972656 231.925781 190.464844 L 231.945312 190.464844 C 236.503906 185.90625 242.804688 183.082031 249.765625 183.082031 C 256.734375 183.089844 263.039062 185.910156 267.597656 190.46875 Z M 149.066406 169.851562 C 149.71875 169.191406 150.417969 168.582031 151.148438 168.003906 C 151.535156 167.703125 151.90625 167.382812 152.3125 167.105469 C 153.125 166.550781 153.992188 166.078125 154.878906 165.640625 C 155.285156 165.4375 155.671875 165.199219 156.089844 165.019531 C 156.976562 164.644531 157.914062 164.382812 158.851562 164.128906 C 159.289062 164.011719 159.699219 163.835938 160.144531 163.746094 C 161.542969 163.460938 162.984375 163.292969 164.460938 163.292969 C 164.46875 163.292969 164.480469 163.292969 164.484375 163.292969 L 210.492188 163.292969 C 211.972656 163.292969 213.417969 163.460938 214.8125 163.746094 C 215.300781 163.84375 215.746094 164.027344 216.214844 164.15625 C 217.105469 164.40625 218 164.648438 218.839844 165.003906 C 219.296875 165.191406 219.714844 165.453125 220.152344 165.675781 C 220.992188 166.097656 221.824219 166.539062 222.597656 167.066406 C 223.042969 167.367188 223.449219 167.714844 223.875 168.042969 C 224.558594 168.582031 225.21875 169.148438 225.824219 169.765625 C 228.855469 172.824219 230.941406 176.761719 231.734375 181.171875 C 229.933594 182.371094 228.253906 183.742188 226.730469 185.269531 C 226.699219 185.296875 226.671875 185.332031 226.644531 185.367188 C 221.105469 183.511719 215.242188 181.972656 209.019531 180.945312 C 202.128906 179.804688 194.90625 179.195312 187.484375 179.195312 C 180.0625 179.195312 172.839844 179.804688 165.949219 180.945312 C 159.726562 181.976562 153.867188 183.511719 148.328125 185.359375 C 148.296875 185.324219 148.269531 185.289062 148.234375 185.261719 C 146.710938 183.738281 145.035156 182.375 143.234375 181.175781 C 144.023438 176.808594 146.078125 172.898438 149.066406 169.851562 Z M 100.019531 208.285156 C 100.019531 201.328125 102.84375 195.023438 107.402344 190.464844 L 107.574219 190.277344 C 112.125 185.828125 118.351562 183.082031 125.226562 183.082031 C 132.199219 183.082031 138.5 185.90625 143.066406 190.464844 C 143.566406 190.960938 144.027344 191.488281 144.484375 192.023438 C 145.335938 193.03125 146.097656 194.113281 146.785156 195.25 C 146.882812 195.410156 146.988281 195.574219 147.082031 195.742188 C 147.722656 196.859375 148.273438 198.035156 148.742188 199.257812 C 148.824219 199.472656 148.90625 199.695312 148.980469 199.914062 C 149.398438 201.09375 149.742188 202.316406 149.976562 203.582031 C 150.011719 203.773438 150.035156 203.96875 150.066406 204.164062 C 150.285156 205.503906 150.429688 206.878906 150.429688 208.277344 C 150.429688 215.25 147.613281 221.546875 143.066406 226.09375 C 138.507812 230.652344 132.199219 233.476562 125.234375 233.476562 C 124.203125 233.476562 123.207031 233.394531 122.214844 233.277344 C 121.820312 233.230469 121.433594 233.164062 121.046875 233.097656 C 120.476562 233.003906 119.914062 232.890625 119.363281 232.761719 C 118.929688 232.65625 118.492188 232.554688 118.0625 232.425781 C 117.324219 232.207031 116.609375 231.957031 115.894531 231.667969 C 115.546875 231.527344 115.207031 231.378906 114.863281 231.226562 C 114.15625 230.902344 113.460938 230.554688 112.785156 230.171875 C 110.8125 229.046875 109 227.6875 107.414062 226.101562 L 107.226562 225.925781 C 102.761719 221.394531 100.019531 215.167969 100.019531 208.285156 Z M 169.902344 295.992188 L 80.539062 295.992188 L 80.539062 276.648438 C 80.539062 270.691406 82.976562 265.269531 86.910156 261.339844 L 87.085938 261.15625 C 90.988281 257.339844 96.335938 254.972656 102.214844 254.972656 L 148.226562 254.972656 C 149.660156 254.972656 151.0625 255.132812 152.417969 255.402344 C 152.855469 255.488281 153.261719 255.652344 153.691406 255.769531 C 154.589844 256.003906 155.488281 256.25 156.339844 256.597656 C 156.8125 256.792969 157.253906 257.046875 157.71875 257.273438 C 158.472656 257.644531 159.21875 258.023438 159.914062 258.472656 C 160.367188 258.761719 160.78125 259.105469 161.210938 259.429688 C 161.847656 259.910156 162.480469 260.410156 163.058594 260.960938 C 163.527344 261.40625 163.96875 261.878906 164.398438 262.359375 C 164.859375 262.886719 165.308594 263.425781 165.71875 264 C 166.070312 264.480469 166.398438 264.980469 166.710938 265.488281 C 167.101562 266.144531 167.460938 266.816406 167.792969 267.511719 C 168.023438 268.003906 168.25 268.503906 168.449219 269.019531 C 168.742188 269.792969 168.972656 270.59375 169.183594 271.410156 C 169.3125 271.910156 169.445312 272.40625 169.53125 272.917969 C 169.746094 274.140625 169.90625 275.378906 169.90625 276.660156 L 169.90625 295.992188 Z M 194.394531 270.363281 C 192.246094 270.476562 189.941406 270.535156 187.492188 270.535156 C 185.046875 270.535156 182.738281 270.476562 180.589844 270.363281 C 179.222656 270.285156 177.863281 270.195312 176.507812 270.070312 C 176.488281 269.992188 176.449219 269.914062 176.429688 269.828125 C 176.089844 268.425781 175.667969 267.054688 175.128906 265.734375 C 175.121094 265.726562 175.121094 265.714844 175.121094 265.710938 C 174.601562 264.433594 173.972656 263.222656 173.277344 262.046875 C 173.144531 261.824219 173.019531 261.601562 172.878906 261.382812 C 172.191406 260.277344 171.441406 259.210938 170.621094 258.214844 C 170.476562 258.035156 170.3125 257.871094 170.164062 257.699219 C 169.769531 257.238281 169.378906 256.777344 168.957031 256.347656 L 168.753906 256.128906 C 168.417969 255.792969 168.054688 255.488281 167.699219 255.171875 C 167.597656 255.074219 167.507812 254.957031 167.398438 254.863281 C 167.289062 254.765625 167.167969 254.679688 167.050781 254.585938 C 166.722656 254.308594 166.386719 254.042969 166.042969 253.773438 C 165.679688 253.492188 165.308594 253.207031 164.929688 252.941406 C 164.578125 252.691406 164.21875 252.453125 163.851562 252.21875 C 163.460938 251.960938 163.058594 251.71875 162.652344 251.488281 C 162.28125 251.273438 161.914062 251.0625 161.53125 250.867188 C 161.101562 250.648438 160.671875 250.4375 160.230469 250.242188 C 159.851562 250.066406 159.46875 249.894531 159.078125 249.730469 C 158.617188 249.546875 158.140625 249.378906 157.664062 249.210938 C 157.285156 249.078125 156.902344 248.9375 156.511719 248.820312 C 155.996094 248.664062 155.476562 248.542969 154.949219 248.417969 C 154.578125 248.328125 154.210938 248.226562 153.835938 248.15625 C 153.246094 248.039062 152.636719 247.957031 152.035156 247.878906 C 151.710938 247.835938 151.398438 247.773438 151.074219 247.746094 C 150.140625 247.652344 149.191406 247.597656 148.234375 247.597656 L 121.941406 247.597656 C 119.960938 245.414062 118.3125 243.125 117.023438 240.769531 L 116.445312 239.652344 L 116.613281 239.695312 C 116.734375 239.730469 116.867188 239.742188 116.988281 239.773438 C 118.085938 240.054688 119.195312 240.289062 120.339844 240.457031 C 120.621094 240.496094 120.902344 240.546875 121.183594 240.582031 C 122.511719 240.746094 123.855469 240.863281 125.226562 240.863281 C 134.214844 240.863281 142.355469 237.210938 148.246094 231.320312 C 154.148438 225.417969 157.800781 217.269531 157.800781 208.289062 C 157.800781 207.238281 157.742188 206.1875 157.644531 205.15625 C 157.609375 204.792969 157.542969 204.433594 157.496094 204.074219 C 157.410156 203.414062 157.324219 202.757812 157.195312 202.113281 C 157.117188 201.691406 157.011719 201.273438 156.914062 200.859375 C 156.78125 200.285156 156.640625 199.714844 156.472656 199.15625 C 156.34375 198.726562 156.210938 198.308594 156.066406 197.890625 C 155.972656 197.609375 155.898438 197.316406 155.792969 197.039062 C 155.707031 196.800781 155.589844 196.582031 155.503906 196.351562 C 155.308594 195.859375 155.105469 195.371094 154.886719 194.894531 C 154.671875 194.421875 154.445312 193.953125 154.207031 193.488281 C 153.96875 193.023438 153.726562 192.574219 153.464844 192.121094 C 153.34375 191.90625 153.238281 191.675781 153.105469 191.460938 C 157.53125 190.109375 162.230469 189.015625 167.144531 188.203125 C 173.574219 187.140625 180.40625 186.570312 187.503906 186.570312 C 194.597656 186.570312 201.421875 187.144531 207.859375 188.203125 C 212.773438 189.015625 217.472656 190.117188 221.898438 191.460938 C 221.769531 191.675781 221.667969 191.90625 221.539062 192.121094 C 221.277344 192.566406 221.035156 193.023438 220.796875 193.488281 C 220.558594 193.953125 220.332031 194.421875 220.113281 194.902344 C 219.894531 195.382812 219.691406 195.871094 219.492188 196.363281 C 219.402344 196.59375 219.289062 196.8125 219.203125 197.046875 C 219.097656 197.324219 219.03125 197.613281 218.929688 197.890625 C 218.785156 198.3125 218.648438 198.730469 218.527344 199.167969 C 218.363281 199.722656 218.226562 200.289062 218.089844 200.859375 C 217.992188 201.28125 217.890625 201.699219 217.808594 202.121094 C 217.6875 202.765625 217.59375 203.417969 217.507812 204.074219 C 217.460938 204.4375 217.394531 204.796875 217.363281 205.167969 C 217.261719 206.183594 217.207031 207.214844 217.207031 208.25 C 217.207031 208.269531 217.207031 208.277344 217.207031 208.296875 C 217.207031 209.414062 217.261719 210.515625 217.375 211.605469 C 217.40625 211.945312 217.476562 212.269531 217.523438 212.605469 C 217.621094 213.347656 217.714844 214.089844 217.859375 214.8125 C 217.953125 215.261719 218.085938 215.6875 218.195312 216.128906 C 218.347656 216.726562 218.472656 217.328125 218.652344 217.914062 C 218.804688 218.40625 219 218.875 219.175781 219.355469 C 219.359375 219.867188 219.523438 220.386719 219.738281 220.878906 C 219.960938 221.414062 220.230469 221.921875 220.476562 222.445312 C 220.679688 222.863281 220.867188 223.296875 221.085938 223.703125 C 221.398438 224.285156 221.757812 224.84375 222.105469 225.40625 C 222.304688 225.722656 222.484375 226.054688 222.6875 226.359375 C 223.109375 226.996094 223.578125 227.605469 224.046875 228.207031 C 224.210938 228.417969 224.355469 228.636719 224.515625 228.839844 C 225.085938 229.535156 225.6875 230.195312 226.308594 230.84375 C 226.386719 230.929688 226.457031 231.023438 226.539062 231.105469 L 226.742188 231.324219 C 232.632812 237.21875 240.777344 240.867188 249.769531 240.867188 C 249.777344 240.867188 249.78125 240.867188 249.789062 240.867188 C 251.15625 240.867188 252.488281 240.757812 253.808594 240.589844 C 254.097656 240.554688 254.375 240.503906 254.660156 240.457031 C 255.789062 240.289062 256.902344 240.054688 257.992188 239.773438 C 258.117188 239.738281 258.25 239.726562 258.375 239.691406 L 258.542969 239.644531 L 257.960938 240.761719 C 256.675781 243.125 255.023438 245.410156 253.042969 247.59375 L 226.757812 247.59375 C 226.757812 247.59375 226.757812 247.59375 226.753906 247.59375 C 225.800781 247.59375 224.859375 247.644531 223.929688 247.734375 C 223.648438 247.761719 223.371094 247.8125 223.085938 247.855469 C 222.441406 247.933594 221.800781 248.023438 221.167969 248.144531 C 220.855469 248.207031 220.554688 248.289062 220.242188 248.363281 C 219.648438 248.503906 219.058594 248.640625 218.480469 248.816406 C 218.179688 248.910156 217.882812 249.019531 217.582031 249.117188 C 217.015625 249.308594 216.445312 249.503906 215.894531 249.730469 C 215.613281 249.847656 215.332031 249.976562 215.050781 250.101562 C 214.5 250.34375 213.949219 250.601562 213.417969 250.878906 C 213.148438 251.015625 212.894531 251.164062 212.632812 251.308594 C 212.101562 251.609375 211.578125 251.914062 211.0625 252.246094 C 210.820312 252.402344 210.589844 252.5625 210.351562 252.726562 C 209.839844 253.078125 209.34375 253.445312 208.855469 253.828125 C 208.636719 254 208.421875 254.175781 208.203125 254.355469 C 207.992188 254.527344 207.773438 254.683594 207.578125 254.863281 C 207.4375 254.992188 207.320312 255.140625 207.183594 255.269531 C 206.9375 255.488281 206.679688 255.699219 206.445312 255.925781 L 206.226562 256.128906 C 205.628906 256.722656 205.074219 257.351562 204.527344 257.992188 C 204.507812 258.023438 204.484375 258.046875 204.460938 258.074219 C 203.578125 259.121094 202.796875 260.253906 202.074219 261.421875 C 201.960938 261.601562 201.851562 261.78125 201.742188 261.960938 C 201.035156 263.160156 200.398438 264.402344 199.867188 265.703125 C 199.855469 265.726562 199.847656 265.75 199.84375 265.773438 C 199.304688 267.101562 198.875 268.472656 198.53125 269.886719 C 198.515625 269.949219 198.488281 270.007812 198.476562 270.070312 C 197.121094 270.1875 195.757812 270.285156 194.394531 270.363281 Z M 294.449219 295.992188 L 205.078125 295.992188 L 205.078125 276.648438 C 205.078125 275.378906 205.242188 274.152344 205.457031 272.941406 C 205.546875 272.425781 205.671875 271.925781 205.792969 271.421875 C 206 270.582031 206.253906 269.757812 206.5625 268.960938 C 206.753906 268.46875 206.957031 267.988281 207.183594 267.511719 C 207.535156 266.765625 207.929688 266.046875 208.359375 265.351562 C 208.648438 264.886719 208.9375 264.421875 209.261719 263.984375 C 209.726562 263.339844 210.242188 262.742188 210.769531 262.160156 C 211.199219 261.6875 211.613281 261.207031 212.082031 260.78125 C 212.585938 260.308594 213.144531 259.898438 213.6875 259.480469 C 214.1875 259.097656 214.671875 258.699219 215.207031 258.363281 C 215.820312 257.976562 216.488281 257.65625 217.140625 257.328125 C 217.675781 257.058594 218.183594 256.765625 218.734375 256.539062 C 219.523438 256.21875 220.355469 256.003906 221.191406 255.785156 C 221.667969 255.65625 222.117188 255.480469 222.605469 255.378906 C 223.949219 255.121094 225.332031 254.964844 226.753906 254.964844 L 272.765625 254.964844 C 278.71875 254.964844 284.144531 257.402344 288.078125 261.335938 C 292.003906 265.265625 294.449219 270.6875 294.449219 276.640625 Z M 294.449219 295.992188 " fill-opacity="1" fill-rule="nonzero"/></g><path fill="#ffffff" d="M 187.492188 149.1875 C 196.371094 149.1875 204.425781 145.621094 210.304688 139.851562 L 210.523438 139.648438 C 216.417969 133.757812 220.066406 125.613281 220.066406 116.621094 C 220.066406 107.75 216.503906 99.699219 210.726562 93.8125 L 210.523438 93.59375 C 204.632812 87.699219 196.488281 84.050781 187.492188 84.050781 C 178.609375 84.050781 170.554688 87.613281 164.675781 93.390625 L 164.457031 93.59375 C 158.5625 99.484375 154.914062 107.628906 154.914062 116.621094 C 154.914062 125.605469 158.5625 133.746094 164.46875 139.648438 C 170.363281 145.535156 178.503906 149.1875 187.492188 149.1875 Z M 169.667969 98.792969 L 169.84375 98.609375 C 174.386719 94.160156 180.621094 91.414062 187.492188 91.414062 C 194.449219 91.414062 200.75 94.234375 205.3125 98.792969 L 205.496094 98.96875 C 209.945312 103.503906 212.691406 109.734375 212.691406 116.609375 C 212.691406 123.566406 209.871094 129.871094 205.3125 134.429688 L 205.136719 134.617188 C 200.59375 139.066406 194.363281 141.8125 187.484375 141.8125 C 180.515625 141.8125 174.207031 138.988281 169.648438 134.429688 C 165.097656 129.882812 162.28125 123.578125 162.28125 116.613281 C 162.289062 109.65625 165.109375 103.355469 169.667969 98.792969 Z M 169.667969 98.792969 " fill-opacity="1" fill-rule="nonzero"/><g clip-path="url(#a7bba75e7a)"><path fill="#ffffff" d="M 87.53125 132.042969 L 104.535156 132.042969 C 107.160156 138.28125 110.992188 143.191406 116.050781 146.769531 C 121.6875 150.761719 128.746094 153.019531 137.203125 153.535156 C 138.558594 153.613281 139.902344 152.941406 140.617188 151.683594 C 141.617188 149.921875 140.996094 147.675781 139.230469 146.671875 C 135.730469 144.691406 133.039062 142.171875 131.160156 139.121094 C 129.878906 137.042969 128.953125 134.683594 128.390625 132.042969 L 130.371094 132.042969 C 134.328125 132.042969 137.921875 130.425781 140.523438 127.824219 C 143.125 125.222656 144.742188 121.625 144.742188 117.675781 L 144.742188 85.996094 C 144.742188 82.039062 143.125 78.449219 140.523438 75.847656 C 137.925781 73.246094 134.328125 71.628906 130.378906 71.628906 L 87.53125 71.628906 C 83.578125 71.628906 79.980469 73.246094 77.378906 75.847656 C 74.777344 78.449219 73.164062 82.046875 73.164062 85.996094 L 73.164062 117.675781 C 73.164062 121.632812 74.777344 125.222656 77.378906 127.824219 C 79.980469 130.433594 83.578125 132.042969 87.53125 132.042969 Z M 80.539062 85.996094 C 80.539062 84.078125 81.324219 82.324219 82.59375 81.054688 C 83.863281 79.785156 85.613281 79 87.53125 79 L 130.371094 79 C 132.289062 79 134.046875 79.785156 135.316406 81.054688 C 136.582031 82.324219 137.371094 84.074219 137.371094 85.992188 L 137.371094 117.667969 C 137.371094 119.585938 136.582031 121.34375 135.316406 122.613281 C 134.046875 123.878906 132.296875 124.667969 130.371094 124.667969 L 124.15625 124.667969 C 122.121094 124.667969 120.472656 126.320312 120.472656 128.351562 L 120.507812 128.832031 C 120.945312 134.210938 122.425781 138.925781 124.921875 142.976562 L 125.261719 143.515625 C 123.460938 142.753906 121.796875 141.839844 120.292969 140.773438 C 115.878906 137.644531 112.621094 133.097656 110.53125 127.136719 C 110.003906 125.617188 108.578125 124.667969 107.058594 124.65625 L 87.53125 124.65625 C 85.613281 124.65625 83.863281 123.867188 82.59375 122.601562 C 81.324219 121.332031 80.539062 119.582031 80.539062 117.65625 Z M 80.539062 85.996094 " fill-opacity="1" fill-rule="nonzero"/></g><g clip-path="url(#79858e95b1)"><path fill="#ffffff" d="M 297.601562 95.777344 C 295 93.175781 291.402344 91.558594 287.449219 91.558594 L 244.601562 91.558594 C 240.644531 91.558594 237.054688 93.175781 234.453125 95.777344 C 231.851562 98.378906 230.234375 101.976562 230.234375 105.925781 L 230.234375 137.605469 C 230.234375 141.5625 231.851562 145.152344 234.453125 147.753906 C 237.054688 150.355469 240.652344 151.972656 244.601562 151.972656 L 269 151.972656 C 268.285156 154.550781 267.320312 156.875 266.085938 158.941406 C 264.230469 162.054688 261.761719 164.660156 258.679688 166.757812 C 257.007812 167.894531 256.566406 170.175781 257.703125 171.855469 C 258.460938 172.980469 259.734375 173.546875 260.996094 173.464844 C 268.800781 172.894531 275.410156 170.574219 280.828125 166.507812 C 285.816406 162.765625 289.710938 157.605469 292.503906 151.027344 C 294.929688 150.113281 297.042969 148.554688 298.636719 146.574219 C 300.621094 144.105469 301.8125 140.976562 301.8125 137.597656 L 301.8125 105.933594 C 301.820312 101.976562 300.203125 98.378906 297.601562 95.777344 Z M 294.449219 137.605469 C 294.449219 139.261719 293.875 140.78125 292.914062 141.972656 C 291.964844 143.15625 290.65625 144.023438 289.164062 144.402344 C 287.910156 144.601562 286.796875 145.453125 286.308594 146.722656 C 283.984375 152.800781 280.691406 157.441406 276.429688 160.640625 C 275.074219 161.652344 273.609375 162.535156 272.039062 163.277344 L 272.398438 162.691406 C 274.773438 158.703125 276.367188 154.121094 277.171875 148.964844 C 277.214844 148.746094 277.238281 148.519531 277.238281 148.289062 C 277.238281 146.253906 275.585938 144.601562 273.550781 144.601562 L 244.609375 144.601562 C 242.691406 144.601562 240.941406 143.816406 239.671875 142.546875 C 238.402344 141.277344 237.617188 139.527344 237.617188 137.605469 L 237.617188 105.933594 C 237.617188 104.015625 238.402344 102.265625 239.671875 100.996094 C 240.941406 99.726562 242.691406 98.9375 244.609375 98.9375 L 287.457031 98.9375 C 289.375 98.9375 291.125 99.726562 292.394531 100.996094 C 293.660156 102.265625 294.449219 104.015625 294.449219 105.9375 Z M 294.449219 137.605469 " fill-opacity="1" fill-rule="nonzero"/></g><path fill="#ffffff" d="M 92.410156 96.917969 L 125.507812 96.917969 C 127.539062 96.917969 129.191406 95.265625 129.191406 93.234375 C 129.191406 91.199219 127.539062 89.546875 125.507812 89.546875 L 92.410156 89.546875 C 90.375 89.546875 88.722656 91.199219 88.722656 93.234375 C 88.71875 95.265625 90.367188 96.917969 92.410156 96.917969 Z M 92.410156 96.917969 " fill-opacity="1" fill-rule="nonzero"/><path fill="#ffffff" d="M 282.578125 109.933594 L 249.480469 109.933594 C 247.445312 109.933594 245.796875 111.585938 245.796875 113.621094 C 245.796875 115.652344 247.445312 117.304688 249.480469 117.304688 L 282.578125 117.304688 C 284.613281 117.304688 286.261719 115.652344 286.261719 113.621094 C 286.261719 111.585938 284.613281 109.933594 282.578125 109.933594 Z M 282.578125 109.933594 " fill-opacity="1" fill-rule="nonzero"/><path fill="#ffffff" d="M 92.410156 111.671875 L 125.507812 111.671875 C 127.539062 111.671875 129.191406 110.023438 129.191406 107.988281 C 129.191406 105.957031 127.539062 104.304688 125.507812 104.304688 L 92.410156 104.304688 C 90.375 104.304688 88.722656 105.957031 88.722656 107.988281 C 88.71875 110.023438 90.367188 111.671875 92.410156 111.671875 Z M 92.410156 111.671875 " fill-opacity="1" fill-rule="nonzero"/><path fill="#ffffff" d="M 282.578125 124.683594 L 249.480469 124.683594 C 247.445312 124.683594 245.796875 126.335938 245.796875 128.371094 C 245.796875 130.402344 247.445312 132.054688 249.480469 132.054688 L 282.578125 132.054688 C 284.613281 132.054688 286.261719 130.402344 286.261719 128.371094 C 286.261719 126.335938 284.613281 124.683594 282.578125 124.683594 Z M 282.578125 124.683594 " fill-opacity="1" fill-rule="nonzero"/></svg>