<svg xmlns="http://www.w3.org/2000/svg" xmlns:xlink="http://www.w3.org/1999/xlink" width="500" zoomAndPan="magnify" viewBox="0 0 375 374.999991" height="500" preserveAspectRatio="xMidYMid meet" version="1.0"><defs><clipPath id="6fd670a355"><path d="M 187 135 L 303.351562 135 L 303.351562 280.539062 L 187 280.539062 Z M 187 135 " clip-rule="nonzero"/></clipPath></defs><path fill="#ffffff" d="M 153.417969 249.785156 C 139.59375 249.785156 126.058594 245.851562 114.367188 238.460938 C 113.402344 237.847656 112.195312 237.703125 111.089844 238.070312 L 82.625 247.574219 L 92.109375 219.089844 C 92.476562 218.003906 92.332031 216.773438 91.71875 215.8125 C 83.054688 202.113281 79.1875 185.9375 80.742188 169.800781 C 82.277344 153.664062 89.136719 138.492188 100.238281 126.695312 C 111.355469 114.878906 126.058594 107.121094 142.070312 104.582031 C 158.085938 102.0625 174.488281 104.949219 188.679688 112.75 C 202.867188 120.574219 214.070312 132.902344 220.5 147.765625 C 226.929688 162.652344 228.21875 179.242188 224.183594 194.945312 C 220.152344 210.632812 210.996094 224.554688 198.199219 234.46875 C 185.382812 244.398438 169.632812 249.785156 153.417969 249.785156 Z M 234.15625 176.742188 C 234.15625 160.09375 229.019531 143.855469 219.414062 130.238281 C 209.832031 116.621094 196.273438 106.300781 180.589844 100.710938 C 164.902344 95.101562 147.886719 94.484375 131.832031 98.929688 C 115.800781 103.394531 101.527344 112.691406 90.980469 125.570312 C 80.414062 138.449219 74.109375 154.277344 72.898438 170.886719 C 71.710938 187.492188 75.664062 204.078125 84.246094 218.351562 L 72.898438 252.40625 C 72.511719 253.59375 72.695312 254.882812 73.433594 255.867188 C 74.148438 256.871094 75.316406 257.464844 76.542969 257.464844 C 76.953125 257.464844 77.363281 257.402344 77.753906 257.277344 L 111.828125 245.914062 C 128.230469 255.785156 147.601562 259.492188 166.5 256.398438 C 185.382812 253.285156 202.5625 243.578125 214.949219 229 C 227.359375 214.398438 234.15625 195.886719 234.15625 176.742188 " fill-opacity="1" fill-rule="nonzero"/><g clip-path="url(#6fd670a355)"><path fill="#ffffff" d="M 292.988281 244.972656 C 301.160156 231.335938 304.640625 215.421875 302.917969 199.613281 C 301.21875 183.808594 294.378906 169 283.507812 157.433594 C 272.613281 145.863281 258.238281 138.144531 242.574219 135.480469 C 240.484375 135.132812 238.5 136.546875 238.128906 138.632812 C 237.78125 140.722656 239.195312 142.710938 241.285156 143.058594 C 262.824219 146.742188 281.113281 160.933594 290.019531 180.898438 C 298.90625 200.863281 297.226562 223.960938 285.515625 242.433594 C 284.898438 243.414062 284.777344 244.601562 285.144531 245.710938 L 293.4375 270.609375 L 268.519531 262.316406 C 267.433594 261.925781 266.226562 262.070312 265.242188 262.707031 C 254.53125 269.484375 242.0625 273.003906 229.367188 272.820312 C 216.691406 272.65625 204.324219 268.785156 193.777344 261.703125 C 192.957031 261.085938 191.894531 260.863281 190.867188 261.027344 C 189.84375 261.210938 188.945312 261.804688 188.371094 262.664062 C 187.777344 263.523438 187.570312 264.589844 187.777344 265.59375 C 188.003906 266.617188 188.597656 267.496094 189.476562 268.070312 C 200.984375 275.808594 214.457031 280.132812 228.34375 280.519531 C 242.203125 280.890625 255.902344 277.304688 267.800781 270.179688 L 298.3125 280.335938 C 298.679688 280.480469 299.109375 280.539062 299.5 280.539062 C 300.75 280.539062 301.894531 279.945312 302.613281 278.945312 C 303.351562 277.941406 303.535156 276.648438 303.164062 275.484375 L 292.988281 244.972656 " fill-opacity="1" fill-rule="nonzero"/></g><path fill="#ffffff" d="M 184.171875 188.269531 L 114.980469 188.269531 C 112.851562 188.269531 111.128906 189.992188 111.128906 192.121094 C 111.128906 194.25 112.851562 195.96875 114.980469 195.96875 L 184.171875 195.96875 C 186.300781 195.96875 188.023438 194.25 188.023438 192.121094 C 188.023438 189.992188 186.300781 188.269531 184.171875 188.269531 " fill-opacity="1" fill-rule="nonzero"/><path fill="#ffffff" d="M 184.171875 157.515625 L 114.980469 157.515625 C 112.851562 157.515625 111.128906 159.234375 111.128906 161.363281 C 111.128906 163.492188 112.851562 165.214844 114.980469 165.214844 L 184.171875 165.214844 C 186.300781 165.214844 188.023438 163.492188 188.023438 161.363281 C 188.023438 159.234375 186.300781 157.515625 184.171875 157.515625 " fill-opacity="1" fill-rule="nonzero"/></svg>