<svg xmlns="http://www.w3.org/2000/svg" xmlns:xlink="http://www.w3.org/1999/xlink" width="500" zoomAndPan="magnify" viewBox="0 0 375 374.999991" height="500" preserveAspectRatio="xMidYMid meet" version="1.0"><defs><clipPath id="0132aeed6c"><path d="M 43 57.609375 L 332.386719 57.609375 L 332.386719 317 L 43 317 Z M 43 57.609375 " clip-rule="nonzero"/></clipPath><clipPath id="620304e7b8"><path d="M 0 328 L 10.316406 328 L 10.316406 374.828125 L 0 374.828125 Z M 0 328 " clip-rule="nonzero"/></clipPath></defs><g clip-path="url(#0132aeed6c)"><path fill="#ffffff" d="M 170.765625 314.972656 C 161.03125 314.433594 146.535156 312.730469 138.546875 311.1875 L 124.027344 308.386719 L 189.800781 307.992188 C 225.976562 307.773438 256.078125 307.09375 256.695312 306.476562 C 257.308594 305.863281 225.246094 305.542969 185.441406 305.765625 L 113.070312 306.171875 L 111.234375 301.742188 C 109.859375 298.425781 109.824219 296.511719 111.097656 294.136719 C 112.199219 292.074219 112.730469 280.878906 112.613281 262.089844 C 112.511719 246.210938 112.753906 232.894531 113.144531 232.5 C 113.539062 232.109375 145.65625 231.84375 184.515625 231.914062 L 255.171875 232.042969 L 262.445312 226.707031 C 270.070312 221.109375 272.496094 220.09375 270.675781 223.257812 C 270.074219 224.296875 270.167969 224.621094 270.878906 223.972656 C 271.59375 223.324219 272.324219 221.789062 272.503906 220.566406 C 272.785156 218.632812 263.761719 218.339844 204.351562 218.339844 L 135.871094 218.339844 L 127.203125 224.546875 C 122.4375 227.960938 118.230469 230.449219 117.859375 230.078125 C 117.484375 229.703125 121.210938 226.570312 126.140625 223.113281 L 135.105469 216.824219 L 277.636719 216.824219 L 277.636719 253.667969 C 277.636719 288.589844 277.796875 290.65625 280.664062 293.253906 C 288.199219 300.074219 280.339844 305.789062 256.839844 310.578125 C 242.804688 313.4375 199.972656 317.21875 191.808594 316.320312 C 189.96875 316.117188 180.5 315.511719 170.765625 314.972656 Z M 261.566406 303.765625 C 262.085938 302.421875 261.832031 301.8125 260.972656 302.34375 C 260.148438 302.851562 259.476562 303.910156 259.476562 304.691406 C 259.476562 306.867188 260.5625 306.390625 261.566406 303.765625 Z M 253.421875 269.792969 L 253.421875 234.988281 L 114.191406 234.988281 L 114.191406 304.601562 L 253.421875 304.601562 Z M 267.238281 298.925781 C 269.121094 296.527344 269.066406 296.472656 266.664062 298.355469 C 265.207031 299.5 264.015625 300.691406 264.015625 301.003906 C 264.015625 302.25 265.261719 301.449219 267.238281 298.925781 Z M 273.289062 294.386719 C 275.171875 291.988281 275.121094 291.933594 272.71875 293.816406 C 271.261719 294.957031 270.070312 296.148438 270.070312 296.464844 C 270.070312 297.710938 271.3125 296.90625 273.289062 294.386719 Z M 155.054688 227.472656 C 155.054688 223.703125 162.484375 222.882812 196.195312 222.914062 L 231.480469 222.945312 L 227.695312 225.90625 C 224.195312 228.644531 221.324219 228.867188 189.484375 228.898438 C 168.351562 228.921875 155.054688 228.371094 155.054688 227.472656 Z M 232.785156 194.066406 C 223.628906 192.253906 206.386719 184.578125 192.109375 175.949219 C 185.230469 171.796875 178.507812 168.398438 177.164062 168.398438 C 173.683594 168.398438 174.070312 166.828125 179.984375 157.007812 C 182.875 152.207031 186.402344 145.144531 187.820312 141.3125 C 189.238281 137.480469 190.574219 134.109375 190.785156 133.816406 C 191.644531 132.640625 201.804688 136.929688 206.644531 140.507812 L 211.804688 144.328125 L 213.320312 134.925781 C 214.820312 125.601562 214.925781 125.445312 226.300781 116.179688 C 237.648438 106.9375 237.898438 106.828125 249.523438 105.84375 C 262.015625 104.789062 274 100.546875 274.265625 97.085938 C 274.808594 89.957031 278.285156 82.246094 284.632812 74.074219 C 288.628906 68.9375 292.539062 64.285156 293.328125 63.738281 C 295.621094 62.148438 306.945312 66.195312 314.230469 71.207031 C 321.109375 75.941406 332.121094 87.183594 332.121094 89.480469 C 332.121094 94.476562 312.03125 113.914062 306.871094 113.914062 C 305.707031 113.914062 302.804688 115.359375 300.421875 117.121094 C 298.035156 118.882812 295.417969 119.914062 294.601562 119.40625 C 293.78125 118.902344 289.335938 123.507812 284.722656 129.636719 C 276.421875 140.664062 267.402344 147.128906 260.132812 147.265625 C 258.523438 147.292969 255.164062 149.039062 252.667969 151.140625 L 248.125 154.960938 L 258.566406 153.914062 L 269.003906 152.863281 L 268.035156 162.523438 C 265.28125 189.9375 265.980469 188 257.375 192.007812 C 249.394531 195.722656 243.597656 196.207031 232.785156 194.066406 Z M 256.1875 185.953125 C 257.515625 184.628906 258.789062 180.128906 259.113281 175.625 C 259.429688 171.234375 259.8125 165.9375 259.960938 163.859375 C 260.203125 160.5 259.625 160.058594 254.792969 159.917969 C 251.796875 159.832031 247.507812 159.300781 245.253906 158.734375 C 241.507812 157.792969 241.296875 157.96875 242.785156 160.75 C 245.125 165.121094 243.304688 170.472656 237.410156 176.539062 C 234.035156 180.019531 230.589844 181.984375 227.339844 182.300781 C 222.785156 182.738281 223.164062 183.042969 232.234375 186.191406 C 243.027344 189.941406 252.296875 189.847656 256.1875 185.953125 Z M 246.570312 174.386719 C 245.386719 172.464844 248.515625 168.398438 251.175781 168.398438 C 253.394531 168.398438 255.351562 172.550781 254.09375 174.585938 C 252.933594 176.46875 247.773438 176.328125 246.570312 174.386719 Z M 211.660156 175.804688 C 207.820312 171.5625 207.695312 159.316406 211.453125 155.167969 C 214.050781 152.296875 213.886719 152.054688 205.800781 146.683594 C 201.222656 143.644531 197.191406 141.15625 196.84375 141.15625 C 195.410156 141.15625 185.574219 162.742188 186.269531 164.363281 C 186.851562 165.714844 210.851562 178.308594 213.929688 178.878906 C 214.269531 178.941406 213.246094 177.558594 211.660156 175.804688 Z M 195.171875 160.851562 C 193.738281 158.535156 197.191406 154.777344 200.746094 154.777344 C 202.9375 154.777344 203.566406 155.652344 203.207031 158.183594 C 202.6875 161.863281 196.96875 163.761719 195.171875 160.851562 Z M 243.839844 150.210938 C 248.695312 147.75 254.664062 145.726562 257.105469 145.714844 C 265.683594 145.679688 274.128906 139.972656 283.652344 127.785156 C 288.636719 121.40625 292.726562 115.019531 292.742188 113.589844 C 292.777344 110.433594 284.542969 100.769531 280.808594 99.585938 C 279.324219 99.113281 275.09375 100.417969 271.390625 102.484375 C 266.738281 105.085938 260.578125 106.707031 251.363281 107.753906 C 238.417969 109.226562 237.785156 109.484375 228.167969 117.265625 C 217.300781 126.058594 215.589844 129.011719 215.589844 138.984375 C 215.589844 146.46875 216.0625 146.738281 223.074219 143.242188 C 227.351562 141.105469 227.886719 140.210938 227.128906 136.429688 C 226.277344 132.175781 228.050781 130.488281 230.023438 133.679688 C 230.652344 134.699219 231.832031 134.285156 233.261719 132.546875 C 235.179688 130.210938 235.394531 130.179688 234.726562 132.328125 C 233.71875 135.566406 237.527344 137.085938 239.796875 134.351562 C 240.960938 132.953125 241.046875 131.371094 240.070312 129.523438 C 239.046875 127.597656 239.214844 126.222656 240.640625 124.902344 C 243.367188 122.382812 244.683594 124.84375 243.429688 130.113281 C 242.128906 135.582031 239.175781 138.910156 233.554688 141.238281 C 230.386719 142.550781 229.515625 143.582031 230.636719 144.703125 C 233.464844 147.53125 232.347656 151.589844 228.074219 154.042969 L 223.914062 156.429688 L 229.464844 155.558594 C 232.519531 155.078125 238.988281 152.671875 243.839844 150.210938 Z M 226.355469 152.417969 C 231.625 149.691406 231.429688 146.65625 225.9375 146 C 221.511719 145.46875 218.148438 148.773438 219.507812 152.316406 C 220.664062 155.332031 220.71875 155.332031 226.355469 152.417969 Z M 234.546875 136.910156 C 234.082031 136.441406 232.859375 136.90625 231.832031 137.941406 C 230.347656 139.4375 230.523438 139.609375 232.679688 138.789062 C 234.171875 138.222656 235.011719 137.375 234.546875 136.910156 Z M 301.375 113.652344 C 303.300781 111.84375 304.878906 109.140625 304.878906 107.652344 C 304.878906 103.574219 295.867188 94.128906 289 91.011719 C 281.015625 87.382812 279.957031 87.480469 277.878906 92.042969 C 275.804688 96.601562 275.679688 97.722656 277.367188 96.679688 C 281.195312 94.3125 296.976562 110.171875 295.257812 114.65625 C 293.972656 118 297.335938 117.445312 301.375 113.652344 Z M 319.210938 103.101562 C 324.382812 98.371094 327.410156 94.476562 326.917969 93.183594 C 326.46875 92.011719 326.773438 91.472656 327.597656 91.984375 C 328.417969 92.492188 329.09375 91.574219 329.09375 89.941406 C 329.09375 86.183594 313.679688 71.96875 305.636719 68.308594 C 296.097656 63.96875 294.230469 64.617188 286.71875 74.875 C 278.339844 86.320312 278.191406 86.675781 281.867188 86.675781 C 290.472656 86.675781 305.101562 98.417969 307.273438 107.066406 C 307.800781 109.167969 308.785156 110.890625 309.460938 110.890625 C 310.136719 110.890625 314.523438 107.382812 319.210938 103.101562 Z M 309.679688 103.839844 C 309.976562 102.304688 311.230469 101.050781 312.464844 101.050781 C 315.710938 101.050781 315.242188 105.449219 311.929688 106.085938 C 309.90625 106.476562 309.289062 105.859375 309.679688 103.839844 Z M 317.242188 97.023438 C 317.515625 95.078125 318.765625 93.484375 320.011719 93.484375 C 323.292969 93.484375 322.84375 99.390625 319.511719 100.03125 C 317.363281 100.445312 316.851562 99.769531 317.242188 97.023438 Z M 147.097656 186.765625 C 144.191406 183.550781 141.089844 179.632812 140.203125 178.0625 C 138.914062 175.777344 138.214844 175.585938 136.683594 177.101562 C 135.632812 178.140625 133.621094 178.992188 132.210938 178.992188 C 130.800781 178.992188 129.296875 179.90625 128.867188 181.027344 C 127.824219 183.75 115.351562 187.128906 111.203125 185.8125 C 106.550781 184.335938 93.664062 164.046875 92.414062 156.230469 C 91.851562 152.71875 89.601562 146.1875 87.414062 141.71875 C 84.109375 134.96875 82.761719 133.589844 79.464844 133.589844 C 76.660156 133.589844 74.710938 132.257812 72.816406 129.050781 C 71.339844 126.550781 69.152344 124.507812 67.957031 124.507812 C 64.984375 124.507812 58.308594 114.953125 49.867188 98.613281 C 42.953125 85.226562 42.863281 84.863281 45.582031 81.839844 C 49.710938 77.246094 65.390625 66.417969 74.628906 61.777344 L 82.742188 57.703125 L 86.464844 61.203125 C 92.9375 67.28125 109.890625 95.640625 108.910156 98.738281 C 108.414062 100.292969 109.339844 103.710938 110.988281 106.421875 C 113.347656 110.304688 113.601562 111.871094 112.230469 114.074219 C 110.796875 116.367188 111.238281 117.613281 114.828125 121.359375 C 117.210938 123.84375 122.851562 127.683594 127.363281 129.890625 C 135.945312 134.089844 140.78125 140.042969 147.875 155.15625 C 149.734375 159.109375 152.171875 162.34375 153.296875 162.34375 C 159.96875 162.34375 169.992188 176.992188 167.878906 183.652344 C 166.628906 187.597656 159.855469 192.613281 155.78125 192.613281 C 153.753906 192.613281 150.246094 190.253906 147.097656 186.765625 Z M 155.054688 185.28125 C 155.054688 184.578125 153.757812 182.828125 152.175781 181.398438 C 149.054688 178.574219 146.871094 180.167969 148.398438 184.152344 C 149.347656 186.617188 155.054688 187.585938 155.054688 185.28125 Z M 116.445312 181.992188 C 115.925781 181.148438 114.757812 180.914062 113.855469 181.472656 C 112.945312 182.03125 112.640625 181.789062 113.175781 180.925781 C 113.703125 180.070312 112.121094 176.386719 109.652344 172.746094 C 107.183594 169.105469 105.15625 165.535156 105.140625 164.808594 C 105.085938 162.328125 109.820312 167.390625 113.625 173.882812 C 117.734375 180.890625 122.144531 183.324219 125.582031 180.472656 C 127.417969 178.949219 127.097656 177.734375 123.460938 172.402344 C 118.285156 164.816406 115.316406 159.316406 116.394531 159.316406 C 116.832031 159.316406 119.675781 163.0625 122.714844 167.640625 C 126.746094 173.714844 129.179688 175.964844 131.722656 175.964844 C 137.375 175.964844 137.347656 173.5 131.585938 164.5 C 128.59375 159.820312 126.40625 155.210938 126.726562 154.253906 C 127.042969 153.296875 128.214844 154.214844 129.328125 156.292969 C 130.4375 158.375 134.328125 164.726562 137.976562 170.414062 C 143.332031 178.777344 145.003906 180.421875 146.703125 179.011719 C 148.285156 177.699219 149.609375 177.699219 152.042969 179 C 155.011719 180.589844 155.144531 180.476562 153.640625 177.664062 C 152.734375 175.976562 148.257812 168.636719 143.6875 161.359375 C 139.117188 154.082031 135.378906 147.109375 135.378906 145.867188 C 135.378906 144.625 137.808594 147.652344 140.777344 152.597656 C 147.285156 163.441406 149.796875 166.207031 148.253906 160.832031 C 147.65625 158.75 144.152344 152.148438 140.460938 146.160156 C 134.699219 136.800781 132.605469 134.726562 125.574219 131.402344 C 121.074219 129.273438 116.964844 126.839844 116.445312 125.996094 C 115.921875 125.152344 114.691406 124.921875 113.710938 125.484375 C 112.726562 126.046875 112.402344 125.976562 112.992188 125.324219 C 113.578125 124.671875 112.246094 121.667969 110.027344 118.648438 C 107.804688 115.628906 105.882812 112.964844 105.746094 112.726562 C 105.328125 111.976562 82.410156 127.53125 82.410156 128.5625 C 82.410156 129.101562 84.390625 132.667969 86.808594 136.484375 C 91.148438 143.335938 96.03125 155.839844 96.03125 160.097656 C 96.03125 162.511719 105.085938 177.238281 108.941406 181.089844 C 111.589844 183.738281 118 184.511719 116.445312 181.996094 Z M 79.632812 130.75 C 77.363281 129.308594 84.957031 122.621094 98.433594 114.191406 C 107.160156 108.734375 110.480469 108.050781 108.96875 112.023438 C 108.207031 114.015625 108.390625 114.246094 109.703125 112.945312 C 111.015625 111.640625 110.570312 109.6875 107.898438 105.011719 C 105.949219 101.597656 103.808594 98.800781 103.144531 98.792969 C 99.375 98.757812 78.386719 113.121094 73.359375 119.179688 C 71.542969 121.363281 71.640625 122.429688 74.042969 126.894531 C 75.578125 129.746094 77.917969 132.066406 79.242188 132.054688 C 81.144531 132.035156 81.226562 131.757812 79.632812 130.75 Z M 79.632812 130.75 " fill-opacity="1" fill-rule="nonzero"/></g><path fill="#000000" d="M -7.027344 331.210938 C -7.445312 331.210938 -7.867188 331.210938 -8.28125 331.261719 C -8.476562 331.28125 -8.636719 331.367188 -8.765625 331.515625 C -8.894531 331.660156 -8.957031 331.832031 -8.945312 332.027344 C -8.9375 332.222656 -8.863281 332.386719 -8.722656 332.523438 C -8.582031 332.660156 -8.414062 332.730469 -8.21875 332.734375 L -8.152344 332.734375 C -7.78125 332.699219 -7.402344 332.683594 -7.027344 332.683594 C -6.175781 332.683594 -5.335938 332.769531 -4.5 332.933594 C -3.664062 333.097656 -2.855469 333.339844 -2.070312 333.664062 C -1.28125 333.988281 -0.535156 334.386719 0.171875 334.855469 C 0.878906 335.324219 1.535156 335.859375 2.136719 336.453125 C 2.738281 337.050781 3.273438 337.703125 3.746094 338.40625 C 4.21875 339.109375 4.621094 339.851562 4.945312 340.628906 C 5.269531 341.410156 5.515625 342.214844 5.683594 343.046875 C 5.847656 343.875 5.933594 344.710938 5.933594 345.554688 C 5.933594 346.402344 5.847656 347.238281 5.683594 348.066406 C 5.515625 348.894531 5.269531 349.699219 4.945312 350.480469 C 4.621094 351.261719 4.21875 352.003906 3.746094 352.707031 C 3.273438 353.410156 2.738281 354.058594 2.136719 354.65625 C 1.535156 355.253906 0.878906 355.789062 0.171875 356.257812 C -0.535156 356.726562 -1.28125 357.125 -2.070312 357.445312 C -2.855469 357.769531 -3.664062 358.015625 -4.5 358.179688 C -5.335938 358.34375 -6.175781 358.425781 -7.027344 358.425781 C -7.878906 358.425781 -8.722656 358.34375 -9.554688 358.179688 C -10.390625 358.015625 -11.203125 357.769531 -11.988281 357.445312 C -12.773438 357.125 -13.519531 356.726562 -14.230469 356.257812 C -14.9375 355.789062 -15.589844 355.253906 -16.191406 354.65625 C -16.792969 354.058594 -17.332031 353.410156 -17.804688 352.707031 C -18.277344 352.003906 -18.675781 351.261719 -19 350.480469 C -19.328125 349.699219 -19.574219 348.894531 -19.738281 348.066406 C -19.90625 347.238281 -19.988281 346.402344 -19.988281 345.554688 C -19.988281 345.183594 -19.988281 344.808594 -19.941406 344.4375 C -19.921875 344.234375 -19.980469 344.054688 -20.113281 343.902344 C -20.246094 343.746094 -20.414062 343.65625 -20.617188 343.640625 C -20.820312 343.625 -21 343.679688 -21.160156 343.8125 C -21.316406 343.941406 -21.402344 344.109375 -21.421875 344.3125 C -21.457031 344.707031 -21.472656 345.144531 -21.472656 345.554688 C -21.472656 346.496094 -21.378906 347.429688 -21.195312 348.355469 C -21.011719 349.277344 -20.734375 350.175781 -20.375 351.046875 C -20.011719 351.914062 -19.566406 352.742188 -19.039062 353.527344 C -18.511719 354.308594 -17.914062 355.035156 -17.242188 355.699219 C -16.570312 356.367188 -15.84375 356.960938 -15.054688 357.484375 C -14.265625 358.007812 -13.433594 358.449219 -12.554688 358.808594 C -11.679688 359.167969 -10.777344 359.441406 -9.847656 359.625 C -8.914062 359.808594 -7.976562 359.902344 -7.027344 359.902344 C -6.078125 359.902344 -5.140625 359.808594 -4.210938 359.625 C -3.28125 359.441406 -2.375 359.167969 -1.5 358.808594 C -0.625 358.449219 0.207031 358.007812 0.996094 357.484375 C 1.785156 356.960938 2.515625 356.367188 3.1875 355.699219 C 3.855469 355.035156 4.457031 354.308594 4.980469 353.527344 C 5.507812 352.742188 5.953125 351.914062 6.316406 351.046875 C 6.679688 350.175781 6.953125 349.277344 7.140625 348.355469 C 7.324219 347.429688 7.417969 346.496094 7.417969 345.554688 C 7.417969 344.613281 7.324219 343.679688 7.140625 342.757812 C 6.953125 341.832031 6.679688 340.9375 6.316406 340.066406 C 5.953125 339.195312 5.507812 338.371094 4.980469 337.585938 C 4.457031 336.804688 3.855469 336.078125 3.1875 335.414062 C 2.515625 334.746094 1.785156 334.152344 0.996094 333.628906 C 0.207031 333.105469 -0.625 332.664062 -1.5 332.304688 C -2.375 331.941406 -3.28125 331.671875 -4.210938 331.488281 C -5.140625 331.304688 -6.078125 331.210938 -7.027344 331.210938 Z M -7.027344 331.210938 " fill-opacity="1" fill-rule="nonzero"/><g clip-path="url(#620304e7b8)"><path fill="#000000" d="M 10.40625 345.554688 C 10.40625 345.183594 10.394531 344.8125 10.371094 344.4375 C 10.347656 344.066406 10.308594 343.695312 10.261719 343.324219 C 10.214844 342.957031 10.152344 342.589844 10.082031 342.222656 C 10.011719 341.855469 9.925781 341.492188 9.832031 341.132812 C 9.734375 340.773438 9.628906 340.414062 9.507812 340.0625 C 9.390625 339.707031 9.261719 339.359375 9.121094 339.011719 C 8.976562 338.667969 8.824219 338.328125 8.660156 337.992188 C 8.496094 337.65625 8.324219 337.324219 8.136719 337 C 7.953125 336.675781 7.757812 336.359375 7.550781 336.046875 C 7.347656 335.734375 7.128906 335.429688 6.90625 335.132812 C 6.679688 334.835938 6.445312 334.542969 6.199219 334.261719 C 5.957031 333.976562 5.703125 333.703125 5.4375 333.4375 C 5.175781 333.167969 4.90625 332.910156 4.625 332.664062 C 4.347656 332.414062 4.0625 332.171875 3.765625 331.941406 C 3.472656 331.710938 3.167969 331.488281 2.859375 331.277344 C 2.550781 331.066406 2.234375 330.867188 1.914062 330.675781 C 1.589844 330.484375 1.261719 330.300781 0.929688 330.132812 C 0.59375 329.960938 0.253906 329.800781 -0.0898438 329.652344 C -0.433594 329.503906 -0.78125 329.367188 -1.136719 329.242188 C -1.488281 329.117188 -1.847656 329 -2.207031 328.898438 C -2.566406 328.796875 -2.933594 328.703125 -3.296875 328.625 C -3.664062 328.542969 -4.035156 328.476562 -4.40625 328.417969 C -4.777344 328.363281 -5.148438 328.320312 -5.523438 328.289062 C -5.898438 328.253906 -6.273438 328.234375 -6.648438 328.226562 C -7.023438 328.21875 -7.398438 328.222656 -7.773438 328.238281 C -8.148438 328.253906 -8.523438 328.28125 -8.894531 328.320312 C -9.269531 328.359375 -9.640625 328.414062 -10.011719 328.476562 C -10.378906 328.539062 -10.746094 328.617188 -11.113281 328.703125 C -11.476562 328.789062 -11.839844 328.890625 -12.199219 329 C -12.554688 329.109375 -12.910156 329.230469 -13.261719 329.363281 C -13.613281 329.5 -13.957031 329.640625 -14.300781 329.796875 C -14.640625 329.953125 -14.976562 330.121094 -15.308594 330.296875 C -15.636719 330.472656 -15.960938 330.660156 -16.28125 330.859375 C -16.597656 331.054688 -16.910156 331.265625 -17.214844 331.480469 C -17.519531 331.699219 -17.816406 331.925781 -18.105469 332.164062 C -18.398438 332.398438 -18.679688 332.644531 -18.953125 332.902344 C -19.226562 333.15625 -19.492188 333.417969 -19.75 333.691406 C -20.007812 333.964844 -20.253906 334.242188 -20.492188 334.53125 C -20.730469 334.820312 -20.960938 335.113281 -21.179688 335.417969 C -21.398438 335.71875 -21.609375 336.027344 -21.808594 336.34375 C -22.007812 336.660156 -22.195312 336.980469 -22.375 337.308594 C -22.554688 337.636719 -22.722656 337.972656 -22.878906 338.308594 C -23.035156 338.648438 -23.179688 338.992188 -23.3125 339.339844 C -23.449219 339.6875 -23.570312 340.042969 -23.683594 340.398438 C -23.792969 340.753906 -23.894531 341.113281 -23.984375 341.476562 C -24.070312 341.835938 -24.148438 342.203125 -24.210938 342.570312 C -24.277344 342.9375 -24.328125 343.304688 -24.367188 343.675781 C -24.410156 344.046875 -24.4375 344.417969 -24.453125 344.792969 C -24.46875 345.164062 -24.472656 345.535156 -24.464844 345.910156 C -24.457031 346.28125 -24.4375 346.652344 -24.40625 347.027344 C -24.371094 347.398438 -24.328125 347.765625 -24.273438 348.136719 C -24.214844 348.503906 -24.148438 348.871094 -24.066406 349.234375 C -23.988281 349.597656 -23.894531 349.960938 -23.792969 350.320312 C -23.6875 350.675781 -23.574219 351.03125 -23.445312 351.382812 C -23.320312 351.734375 -23.183594 352.082031 -23.03125 352.421875 C -22.882812 352.765625 -22.722656 353.101562 -22.550781 353.433594 C -22.378906 353.765625 -22.199219 354.089844 -22.007812 354.410156 C -21.8125 354.730469 -21.613281 355.046875 -21.398438 355.351562 C -21.1875 355.660156 -20.964844 355.960938 -20.730469 356.253906 C -20.5 356.546875 -20.257812 356.832031 -20.007812 357.109375 C -19.757812 357.386719 -19.496094 357.65625 -19.226562 357.914062 C -18.960938 358.175781 -18.683594 358.429688 -18.398438 358.671875 C -18.113281 358.914062 -17.820312 359.148438 -17.519531 359.371094 C -17.222656 359.597656 -16.914062 359.8125 -16.601562 360.015625 L -16.601562 373.9375 C -16.601562 374.234375 -16.46875 374.457031 -16.203125 374.59375 C -16.09375 374.644531 -15.980469 374.671875 -15.863281 374.675781 C -15.703125 374.671875 -15.558594 374.628906 -15.425781 374.535156 L -11.503906 371.710938 L -7.03125 368.492188 L -2.5625 371.710938 L 1.355469 374.53125 C 1.601562 374.722656 1.863281 374.746094 2.144531 374.605469 C 2.421875 374.46875 2.558594 374.242188 2.550781 373.933594 L 2.550781 360.015625 C 3.757812 359.230469 4.851562 358.304688 5.824219 357.25 C 6.800781 356.191406 7.632812 355.03125 8.316406 353.769531 C 9.003906 352.507812 9.523438 351.183594 9.875 349.792969 C 10.230469 348.402344 10.40625 346.988281 10.40625 345.554688 Z M -15.132812 360.894531 L -14.867188 361.023438 L -14.386719 361.257812 L -14.011719 361.421875 C -13.824219 361.507812 -13.613281 361.585938 -13.441406 361.660156 L -13.132812 361.78125 L -12.675781 361.9375 L -12.675781 370.722656 L -15.132812 372.496094 Z M -7.042969 366.839844 C -7.207031 366.839844 -7.351562 366.886719 -7.480469 366.980469 L -11.191406 369.652344 L -11.191406 362.375 L -11.046875 362.40625 C -10.808594 362.460938 -10.5625 362.511719 -10.320312 362.558594 L -10.023438 362.613281 C -9.796875 362.652344 -9.570312 362.6875 -9.339844 362.714844 L -9.027344 362.753906 C -8.792969 362.78125 -8.554688 362.800781 -8.316406 362.816406 L -8.035156 362.839844 C -7.707031 362.839844 -7.378906 362.867188 -7.042969 362.867188 C -6.710938 362.867188 -6.382812 362.867188 -6.054688 362.839844 L -5.773438 362.816406 C -5.535156 362.816406 -5.296875 362.78125 -5.0625 362.753906 L -4.753906 362.714844 C -4.523438 362.6875 -4.292969 362.652344 -4.066406 362.613281 L -3.773438 362.558594 C -3.523438 362.511719 -3.28125 362.460938 -3.042969 362.40625 L -2.898438 362.375 L -2.898438 369.65625 L -6.609375 366.984375 C -6.734375 366.894531 -6.875 366.847656 -7.027344 366.84375 Z M 1.070312 360.894531 L 1.070312 372.496094 L -1.382812 370.722656 L -1.382812 361.921875 L -0.921875 361.761719 L -0.621094 361.644531 C -0.429688 361.570312 -0.238281 361.492188 -0.046875 361.40625 L 0.328125 361.242188 L 0.808594 361.007812 Z M 1.308594 359.066406 C 1.058594 359.21875 0.800781 359.363281 0.542969 359.503906 L 0.25 359.652344 C 0.046875 359.753906 -0.148438 359.859375 -0.371094 359.953125 L -0.660156 360.082031 C -0.957031 360.210938 -1.253906 360.332031 -1.558594 360.441406 L -1.632812 360.46875 C -1.925781 360.570312 -2.214844 360.660156 -2.511719 360.75 L -2.746094 360.816406 C -3.035156 360.894531 -3.320312 360.96875 -3.617188 361.03125 L -3.722656 361.054688 C -4.054688 361.125 -4.390625 361.179688 -4.726562 361.234375 L -4.933594 361.257812 C -5.199219 361.292969 -5.46875 361.320312 -5.730469 361.339844 L -6 361.363281 C -6.332031 361.363281 -6.667969 361.394531 -7.003906 361.394531 C -7.339844 361.394531 -7.679688 361.394531 -8.015625 361.363281 L -8.28125 361.339844 C -8.546875 361.339844 -8.820312 361.292969 -9.078125 361.257812 L -9.300781 361.234375 C -9.636719 361.179688 -9.972656 361.125 -10.304688 361.054688 L -10.410156 361.03125 C -10.703125 360.96875 -10.996094 360.894531 -11.28125 360.816406 L -11.527344 360.734375 C -11.824219 360.644531 -12.121094 360.554688 -12.410156 360.453125 L -12.496094 360.441406 C -12.796875 360.332031 -13.09375 360.210938 -13.386719 360.082031 L -13.671875 359.941406 C -13.878906 359.84375 -14.070312 359.742188 -14.292969 359.640625 L -14.582031 359.492188 C -14.839844 359.355469 -15.101562 359.203125 -15.351562 359.050781 C -15.84375 358.75 -16.316406 358.429688 -16.773438 358.078125 C -17.226562 357.730469 -17.664062 357.359375 -18.078125 356.960938 C -18.492188 356.566406 -18.886719 356.148438 -19.257812 355.710938 C -19.625 355.273438 -19.972656 354.820312 -20.292969 354.34375 C -20.613281 353.867188 -20.90625 353.378906 -21.171875 352.871094 C -21.4375 352.367188 -21.675781 351.847656 -21.886719 351.316406 C -22.097656 350.78125 -22.277344 350.242188 -22.429688 349.691406 C -22.582031 349.136719 -22.703125 348.582031 -22.792969 348.015625 C -22.882812 347.453125 -22.941406 346.882812 -22.972656 346.3125 C -23 345.742188 -22.996094 345.171875 -22.964844 344.601562 C -22.929688 344.03125 -22.867188 343.464844 -22.769531 342.902344 C -22.675781 342.335938 -22.550781 341.78125 -22.394531 341.230469 C -22.238281 340.679688 -22.054688 340.140625 -21.839844 339.609375 C -21.625 339.082031 -21.382812 338.5625 -21.109375 338.058594 C -20.839844 337.554688 -20.542969 337.066406 -20.21875 336.59375 C -19.894531 336.121094 -19.546875 335.667969 -19.171875 335.234375 C -18.796875 334.800781 -18.402344 334.386719 -17.984375 333.992188 C -17.566406 333.601562 -17.125 333.234375 -16.667969 332.886719 C -16.210938 332.542969 -15.734375 332.222656 -15.238281 331.929688 C -14.746094 331.636719 -14.238281 331.371094 -13.714844 331.128906 C -13.191406 330.890625 -12.660156 330.679688 -12.113281 330.496094 C -11.566406 330.316406 -11.015625 330.164062 -10.453125 330.042969 C -9.890625 329.917969 -9.324219 329.828125 -8.75 329.765625 C -8.179688 329.703125 -7.605469 329.671875 -7.03125 329.671875 C -6.453125 329.671875 -5.882812 329.703125 -5.308594 329.765625 C -4.738281 329.828125 -4.171875 329.917969 -3.609375 330.042969 C -3.046875 330.164062 -2.492188 330.316406 -1.945312 330.496094 C -1.402344 330.679688 -0.867188 330.890625 -0.34375 331.128906 C 0.175781 331.371094 0.6875 331.636719 1.179688 331.929688 C 1.671875 332.222656 2.148438 332.542969 2.605469 332.886719 C 3.066406 333.234375 3.503906 333.601562 3.921875 333.992188 C 4.339844 334.386719 4.738281 334.800781 5.109375 335.234375 C 5.484375 335.667969 5.832031 336.121094 6.15625 336.59375 C 6.480469 337.066406 6.777344 337.554688 7.050781 338.058594 C 7.320312 338.5625 7.5625 339.082031 7.777344 339.609375 C 7.992188 340.140625 8.179688 340.679688 8.335938 341.230469 C 8.488281 341.78125 8.617188 342.335938 8.710938 342.902344 C 8.804688 343.464844 8.871094 344.03125 8.902344 344.601562 C 8.9375 345.171875 8.941406 345.742188 8.910156 346.3125 C 8.882812 346.882812 8.824219 347.453125 8.730469 348.015625 C 8.640625 348.582031 8.519531 349.136719 8.371094 349.691406 C 8.21875 350.242188 8.039062 350.78125 7.828125 351.316406 C 7.617188 351.847656 7.378906 352.367188 7.113281 352.871094 C 6.84375 353.378906 6.550781 353.867188 6.230469 354.34375 C 5.910156 354.820312 5.566406 355.273438 5.195312 355.710938 C 4.824219 356.148438 4.433594 356.566406 4.019531 356.960938 C 3.601562 357.359375 3.167969 357.730469 2.710938 358.078125 C 2.253906 358.429688 1.78125 358.75 1.292969 359.050781 Z M 1.308594 359.066406 " fill-opacity="1" fill-rule="nonzero"/></g><path fill="#000000" d="M -14.699219 345.644531 L -13.003906 346.863281 C -12.816406 346.996094 -12.683594 347.171875 -12.609375 347.394531 C -12.535156 347.613281 -12.535156 347.832031 -12.605469 348.050781 L -13.253906 350.035156 C -13.414062 350.550781 -13.410156 351.070312 -13.234375 351.582031 C -13.0625 352.097656 -12.753906 352.515625 -12.3125 352.832031 C -11.871094 353.148438 -11.375 353.3125 -10.832031 353.3125 C -10.285156 353.316406 -9.789062 353.160156 -9.34375 352.847656 L -7.65625 351.617188 C -7.46875 351.484375 -7.261719 351.417969 -7.03125 351.417969 C -6.800781 351.417969 -6.59375 351.484375 -6.40625 351.617188 L -4.714844 352.847656 C -4.269531 353.164062 -3.769531 353.324219 -3.222656 353.324219 C -2.671875 353.324219 -2.175781 353.164062 -1.730469 352.84375 C -1.285156 352.527344 -0.976562 352.109375 -0.804688 351.589844 C -0.632812 351.074219 -0.628906 350.554688 -0.792969 350.035156 L -1.4375 348.050781 C -1.511719 347.832031 -1.511719 347.613281 -1.4375 347.394531 C -1.363281 347.171875 -1.230469 346.996094 -1.039062 346.863281 L 0.648438 345.644531 C 1.097656 345.320312 1.40625 344.898438 1.578125 344.378906 C 1.75 343.855469 1.75 343.335938 1.578125 342.8125 C 1.40625 342.292969 1.097656 341.871094 0.652344 341.546875 C 0.203125 341.226562 -0.296875 341.066406 -0.847656 341.066406 L -2.949219 341.066406 C -3.179688 341.066406 -3.386719 341 -3.574219 340.867188 C -3.761719 340.730469 -3.890625 340.554688 -3.960938 340.335938 L -4.605469 338.355469 C -4.777344 337.835938 -5.085938 337.414062 -5.53125 337.089844 C -5.980469 336.769531 -6.476562 336.609375 -7.03125 336.609375 C -7.582031 336.609375 -8.082031 336.769531 -8.527344 337.089844 C -8.972656 337.414062 -9.28125 337.835938 -9.453125 338.355469 L -10.097656 340.335938 C -10.167969 340.554688 -10.296875 340.730469 -10.484375 340.863281 C -10.671875 341 -10.878906 341.066406 -11.109375 341.066406 L -13.195312 341.066406 C -13.75 341.066406 -14.25 341.222656 -14.699219 341.546875 C -15.144531 341.867188 -15.457031 342.289062 -15.625 342.8125 C -15.796875 343.332031 -15.796875 343.855469 -15.625 344.378906 C -15.453125 344.898438 -15.144531 345.320312 -14.699219 345.644531 Z M -14.210938 343.265625 C -14.144531 343.046875 -14.015625 342.867188 -13.828125 342.730469 C -13.640625 342.597656 -13.429688 342.53125 -13.195312 342.535156 L -11.109375 342.535156 C -10.558594 342.539062 -10.058594 342.378906 -9.613281 342.054688 C -9.164062 341.734375 -8.855469 341.3125 -8.6875 340.789062 L -8.042969 338.808594 C -7.96875 338.589844 -7.839844 338.414062 -7.652344 338.28125 C -7.46875 338.148438 -7.261719 338.082031 -7.03125 338.082031 C -6.800781 338.082031 -6.59375 338.148438 -6.40625 338.28125 C -6.21875 338.414062 -6.089844 338.589844 -6.019531 338.808594 L -5.371094 340.789062 C -5.203125 341.308594 -4.894531 341.730469 -4.449219 342.054688 C -4 342.375 -3.503906 342.539062 -2.949219 342.535156 L -0.859375 342.535156 C -0.628906 342.535156 -0.417969 342.601562 -0.234375 342.738281 C -0.046875 342.871094 0.0820312 343.046875 0.152344 343.265625 C 0.222656 343.484375 0.222656 343.703125 0.152344 343.917969 C 0.0820312 344.136719 -0.0507812 344.3125 -0.238281 344.445312 L -1.925781 345.675781 C -2.371094 345.996094 -2.683594 346.417969 -2.851562 346.941406 C -3.023438 347.460938 -3.023438 347.984375 -2.851562 348.503906 L -2.203125 350.484375 C -2.132812 350.703125 -2.128906 350.921875 -2.203125 351.140625 C -2.273438 351.359375 -2.398438 351.535156 -2.585938 351.671875 C -2.773438 351.804688 -2.980469 351.875 -3.210938 351.875 C -3.445312 351.875 -3.652344 351.808594 -3.839844 351.675781 L -5.53125 350.429688 C -5.976562 350.105469 -6.476562 349.945312 -7.03125 349.945312 C -7.582031 349.945312 -8.082031 350.105469 -8.527344 350.429688 L -10.214844 351.652344 C -10.402344 351.785156 -10.613281 351.851562 -10.84375 351.851562 C -11.074219 351.851562 -11.285156 351.78125 -11.46875 351.648438 C -11.65625 351.511719 -11.785156 351.335938 -11.855469 351.117188 C -11.925781 350.898438 -11.925781 350.679688 -11.851562 350.460938 L -11.210938 348.480469 C -11.042969 347.960938 -11.046875 347.445312 -11.214844 346.929688 C -11.386719 346.414062 -11.691406 345.996094 -12.136719 345.675781 L -13.824219 344.453125 C -14.015625 344.324219 -14.148438 344.148438 -14.21875 343.925781 C -14.289062 343.707031 -14.289062 343.488281 -14.210938 343.269531 Z M -14.210938 343.265625 " fill-opacity="1" fill-rule="nonzero"/></svg>