<svg xmlns="http://www.w3.org/2000/svg" xmlns:xlink="http://www.w3.org/1999/xlink" width="500" zoomAndPan="magnify" viewBox="0 0 375 374.999991" height="500" preserveAspectRatio="xMidYMid meet" version="1.0"><defs><clipPath id="764a3c882f"><path d="M 90.976562 83.851562 L 283.726562 83.851562 L 283.726562 290.851562 L 90.976562 290.851562 Z M 90.976562 83.851562 " clip-rule="nonzero"/></clipPath></defs><path fill="#ffffff" d="M 239.785156 184.671875 L 239.785156 156.398438 C 239.785156 155.101562 238.722656 154.042969 237.429688 154.042969 L 209.15625 154.042969 L 189.167969 134.054688 C 188.273438 133.160156 186.71875 133.160156 185.847656 134.054688 L 165.863281 154.042969 L 137.589844 154.042969 C 136.292969 154.042969 135.234375 155.101562 135.234375 156.398438 L 135.234375 184.671875 L 115.246094 204.660156 C 114.328125 205.578125 114.328125 207.058594 115.246094 207.976562 L 135.234375 227.964844 L 135.234375 256.238281 C 135.234375 257.53125 136.292969 258.59375 137.589844 258.59375 L 165.863281 258.59375 L 185.847656 278.578125 C 186.296875 279.027344 186.886719 279.261719 187.519531 279.261719 C 188.15625 279.261719 188.746094 279.003906 189.191406 278.578125 L 209.179688 258.59375 L 237.453125 258.59375 C 238.746094 258.59375 239.808594 257.53125 239.808594 256.238281 L 239.808594 227.964844 L 259.792969 207.976562 C 260.710938 207.058594 260.710938 205.578125 259.792969 204.660156 L 239.808594 184.671875 Z M 235.78125 225.351562 C 235.335938 225.796875 235.097656 226.386719 235.097656 227.023438 L 235.097656 253.929688 L 208.191406 253.929688 C 207.554688 253.929688 206.964844 254.191406 206.519531 254.613281 L 187.496094 273.636719 L 168.476562 254.613281 C 168.027344 254.167969 167.441406 253.929688 166.804688 253.929688 L 139.894531 253.929688 L 139.894531 227.023438 C 139.894531 226.386719 139.636719 225.796875 139.214844 225.351562 L 120.191406 206.328125 L 139.214844 187.308594 C 139.660156 186.859375 139.894531 186.273438 139.894531 185.636719 L 139.894531 158.726562 L 166.804688 158.726562 C 167.441406 158.726562 168.027344 158.46875 168.476562 158.046875 L 187.496094 139.023438 L 206.519531 158.046875 C 206.964844 158.492188 207.554688 158.726562 208.191406 158.726562 L 235.097656 158.726562 L 235.097656 185.636719 C 235.097656 186.273438 235.359375 186.859375 235.78125 187.308594 L 254.804688 206.328125 Z M 235.78125 225.351562 " fill-opacity="1" fill-rule="nonzero"/><path fill="#ffffff" d="M 222.363281 187.660156 L 214.195312 186.484375 L 210.542969 179.066406 C 209.886719 177.726562 208.566406 176.902344 207.058594 176.902344 C 205.554688 176.902344 204.234375 177.726562 203.601562 179.066406 L 199.949219 186.484375 L 191.78125 187.660156 C 190.320312 187.871094 189.121094 188.886719 188.652344 190.296875 C 188.203125 191.710938 188.554688 193.242188 189.640625 194.253906 L 195.546875 200.019531 L 194.160156 208.164062 C 193.902344 209.625 194.488281 211.085938 195.691406 211.957031 C 196.890625 212.828125 198.445312 212.945312 199.761719 212.261719 L 207.058594 208.425781 L 214.382812 212.261719 C 215.699219 212.945312 217.253906 212.851562 218.453125 211.957031 C 219.65625 211.085938 220.242188 209.625 219.984375 208.164062 L 218.597656 200.019531 L 224.503906 194.253906 C 226.8125 192.15625 225.445312 187.992188 222.363281 187.660156 Z M 206.308594 181.140625 Z M 214.96875 196.960938 C 214.074219 197.855469 213.652344 199.125 213.863281 200.375 L 215.042969 207.269531 L 208.851562 204.023438 C 207.71875 203.433594 206.378906 203.433594 205.246094 204.023438 L 199.054688 207.269531 L 200.234375 200.351562 C 200.445312 199.101562 200.019531 197.832031 199.125 196.9375 L 194.113281 192.039062 L 201.035156 191.027344 C 202.304688 190.839844 203.386719 190.0625 203.953125 188.910156 L 207.058594 182.625 L 210.167969 188.910156 C 210.734375 190.0625 211.816406 190.839844 213.085938 191.027344 L 220.007812 192.039062 L 214.992188 196.9375 Z M 214.96875 196.960938 " fill-opacity="1" fill-rule="nonzero"/><path fill="#ffffff" d="M 212.546875 220.550781 C 183.308594 230.90625 164.167969 191.167969 190.511719 174.738281 C 192.371094 173.722656 191.804688 170.6875 189.710938 170.40625 C 167.699219 166.308594 146.792969 183.988281 146.980469 206.328125 C 146.980469 226.457031 163.34375 242.820312 183.472656 242.820312 C 196.773438 242.820312 209.039062 235.570312 215.464844 223.890625 C 216.546875 222.054688 214.546875 219.75 212.570312 220.550781 Z M 183.472656 238.109375 C 141.613281 236.441406 141.214844 176.855469 182.976562 174.546875 C 161.390625 194.511719 178.785156 230.835938 207.929688 226.621094 C 201.953125 233.828125 193.03125 238.109375 183.472656 238.109375 Z M 183.472656 238.109375 " fill-opacity="1" fill-rule="nonzero"/><g clip-path="url(#764a3c882f)"><path fill="#ffffff" d="M 269.894531 95.683594 L 258.121094 95.683594 L 258.121094 90.976562 C 258.121094 87.089844 254.945312 83.914062 251.058594 83.914062 L 248.707031 83.914062 C 244.820312 83.914062 241.644531 87.089844 241.644531 90.976562 L 241.644531 95.683594 L 227.519531 95.683594 L 227.519531 90.976562 C 227.519531 87.089844 224.339844 83.914062 220.457031 83.914062 L 218.101562 83.914062 C 214.21875 83.914062 211.039062 87.089844 211.039062 90.976562 L 211.039062 95.683594 L 163.957031 95.683594 L 163.957031 90.976562 C 163.957031 87.089844 160.777344 83.914062 156.894531 83.914062 L 154.539062 83.914062 C 150.652344 83.914062 147.476562 87.089844 147.476562 90.976562 L 147.476562 95.683594 L 133.351562 95.683594 L 133.351562 90.976562 C 133.351562 87.089844 130.171875 83.914062 126.289062 83.914062 L 123.933594 83.914062 C 120.050781 83.914062 116.871094 87.089844 116.871094 90.976562 L 116.871094 95.683594 L 105.101562 95.683594 C 97.308594 95.683594 90.976562 102.015625 90.976562 109.808594 L 90.976562 276.957031 C 90.976562 284.746094 97.308594 291.082031 105.101562 291.082031 L 269.894531 291.082031 C 277.6875 291.082031 284.019531 284.746094 284.019531 276.957031 L 284.019531 109.808594 C 284.019531 102.015625 277.6875 95.683594 269.894531 95.683594 Z M 246.351562 90.976562 C 246.351562 89.679688 247.410156 88.621094 248.707031 88.621094 L 251.058594 88.621094 C 252.355469 88.621094 253.414062 89.679688 253.414062 90.976562 L 253.414062 105.101562 C 253.414062 106.394531 252.355469 107.453125 251.058594 107.453125 L 248.707031 107.453125 C 247.410156 107.453125 246.351562 106.394531 246.351562 105.101562 Z M 215.746094 90.976562 C 215.746094 89.679688 216.808594 88.621094 218.101562 88.621094 L 220.457031 88.621094 C 221.75 88.621094 222.808594 89.679688 222.808594 90.976562 L 222.808594 105.101562 C 222.808594 106.394531 221.75 107.453125 220.457031 107.453125 L 218.101562 107.453125 C 216.808594 107.453125 215.746094 106.394531 215.746094 105.101562 Z M 152.183594 90.976562 C 152.183594 89.679688 153.242188 88.621094 154.539062 88.621094 L 156.894531 88.621094 C 158.1875 88.621094 159.246094 89.679688 159.246094 90.976562 L 159.246094 105.101562 C 159.246094 106.394531 158.1875 107.453125 156.894531 107.453125 L 154.539062 107.453125 C 153.242188 107.453125 152.183594 106.394531 152.183594 105.101562 Z M 121.582031 90.976562 C 121.582031 89.679688 122.640625 88.621094 123.933594 88.621094 L 126.289062 88.621094 C 127.582031 88.621094 128.644531 89.679688 128.644531 90.976562 L 128.644531 105.101562 C 128.644531 106.394531 127.582031 107.453125 126.289062 107.453125 L 123.933594 107.453125 C 122.640625 107.453125 121.582031 106.394531 121.582031 105.101562 Z M 95.683594 109.808594 C 95.683594 104.605469 99.898438 100.390625 105.101562 100.390625 L 116.871094 100.390625 L 116.871094 105.101562 C 116.871094 108.984375 120.050781 112.164062 123.933594 112.164062 L 126.289062 112.164062 C 130.171875 112.164062 133.351562 108.984375 133.351562 105.101562 L 133.351562 100.390625 L 147.476562 100.390625 L 147.476562 105.101562 C 147.476562 108.984375 150.652344 112.164062 154.539062 112.164062 L 156.894531 112.164062 C 160.777344 112.164062 163.957031 108.984375 163.957031 105.101562 L 163.957031 100.390625 L 211.039062 100.390625 L 211.039062 105.101562 C 211.039062 108.984375 214.21875 112.164062 218.101562 112.164062 L 220.457031 112.164062 C 224.339844 112.164062 227.519531 108.984375 227.519531 105.101562 L 227.519531 100.390625 L 241.644531 100.390625 L 241.644531 105.101562 C 241.644531 108.984375 244.820312 112.164062 248.707031 112.164062 L 251.058594 112.164062 C 254.945312 112.164062 258.121094 108.984375 258.121094 105.101562 L 258.121094 100.390625 L 269.894531 100.390625 C 275.097656 100.390625 279.308594 104.605469 279.308594 109.808594 L 279.308594 121.578125 L 95.683594 121.578125 Z M 269.894531 286.371094 L 105.101562 286.371094 C 99.898438 286.371094 95.683594 282.15625 95.683594 276.957031 L 95.683594 126.289062 L 279.308594 126.289062 L 279.308594 276.957031 C 279.308594 282.15625 275.097656 286.371094 269.894531 286.371094 Z M 269.894531 286.371094 " fill-opacity="1" fill-rule="nonzero"/></g></svg>